ISO-10303-21;
HEADER;
FILE_DESCRIPTION (( 'STEP AP214' ),
    '1' );
FILE_NAME ('pogo - pin.STEP',
    '2026-05-21T19:11:27',
    ( '' ),
    ( '' ),
    'SwSTEP 2.0',
    'SolidWorks 2024',
    '' );
FILE_SCHEMA (( 'AUTOMOTIVE_DESIGN' ));
ENDSEC;

DATA;
#1 = EDGE_LOOP ( 'NONE', ( #731, #94, #180, #477 ) ) ;
#2 = CARTESIAN_POINT ( 'NONE',  ( -3.252606517456508865E-16, 12.00000000000000000, 1.499999999999996669 ) ) ;
#3 = VERTEX_POINT ( 'NONE', #676 ) ;
#4 = EDGE_CURVE ( 'NONE', #362, #400, #903, .T. ) ;
#5 = EDGE_CURVE ( 'NONE', #603, #666, #373, .T. ) ;
#6 = DIRECTION ( 'NONE',  ( 0.000000000000000000, 1.000000000000000000, 0.000000000000000000 ) ) ;
#7 = EDGE_CURVE ( 'NONE', #520, #391, #437, .T. ) ;
#8 = FACE_OUTER_BOUND ( 'NONE', #392, .T. ) ;
#9 = VERTEX_POINT ( 'NONE', #65 ) ;
#10 = PLANE ( 'NONE',  #656 ) ;
#11 = FACE_OUTER_BOUND ( 'NONE', #1137, .T. ) ;
#12 = DIRECTION ( 'NONE',  ( 0.000000000000000000, 0.000000000000000000, -1.000000000000000000 ) ) ;
#13 = CARTESIAN_POINT ( 'NONE',  ( 10.80000000000000071, 12.00000000000000000, 1.499999999999999112 ) ) ;
#14 = EDGE_CURVE ( 'NONE', #1048, #924, #682, .T. ) ;
#15 = CARTESIAN_POINT ( 'NONE',  ( -4.000000000000000000, 12.00000000000000000, 1.499999999999999556 ) ) ;
#16 = LINE ( 'NONE', #921, #1109 ) ;
#17 = VECTOR ( 'NONE', #898, 1000.000000000000000 ) ;
#18 = EDGE_CURVE ( 'NONE', #408, #3, #891, .T. ) ;
#19 = CARTESIAN_POINT ( 'NONE',  ( -4.000000000000000000, 12.00000000000000000, -1.500000000000000444 ) ) ;
#20 = LINE ( 'NONE', #25, #40 ) ;
#21 = ORIENTED_EDGE ( 'NONE', *, *, #211, .F. ) ;
#22 = AXIS2_PLACEMENT_3D ( 'NONE', #988, #963, #146 ) ;
#23 = CARTESIAN_POINT ( 'NONE',  ( 10.80000000000000071, 12.00000000000000000, -1.500000000000001110 ) ) ;
#24 = VERTEX_POINT ( 'NONE', #1050 ) ;
#25 = CARTESIAN_POINT ( 'NONE',  ( -2.168404344971007389E-16, 12.00000000000000000, 1.499999999999999112 ) ) ;
#26 = AXIS2_PLACEMENT_3D ( 'NONE', #614, #430, #982 ) ;
#27 = VECTOR ( 'NONE', #45, 1000.000000000000000 ) ;
#28 = VECTOR ( 'NONE', #725, 1000.000000000000000 ) ;
#29 = ORIENTED_EDGE ( 'NONE', *, *, #617, .T. ) ;
#30 = CARTESIAN_POINT ( 'NONE',  ( -4.000000000000000000, 12.00000000000000000, 0.000000000000000000 ) ) ;
#31 = ORIENTED_EDGE ( 'NONE', *, *, #713, .T. ) ;
#32 = CARTESIAN_POINT ( 'NONE',  ( -17.00000000000001776, 0.5999999999999999778, -1.600000000000001865 ) ) ;
#33 = EDGE_CURVE ( 'NONE', #666, #907, #881, .T. ) ;
#34 = EDGE_CURVE ( 'NONE', #1161, #298, #1077, .T. ) ;
#35 = ORIENTED_EDGE ( 'NONE', *, *, #121, .T. ) ;
#36 = ORIENTED_EDGE ( 'NONE', *, *, #601, .T. ) ;
#37 =( NAMED_UNIT ( * ) PLANE_ANGLE_UNIT ( ) SI_UNIT ( $, .RADIAN. ) );
#38 = VERTEX_POINT ( 'NONE', #514 ) ;
#39 = DIRECTION ( 'NONE',  ( 0.000000000000000000, -0.000000000000000000, 1.000000000000000000 ) ) ;
#40 = VECTOR ( 'NONE', #123, 1000.000000000000000 ) ;
#41 = EDGE_LOOP ( 'NONE', ( #1152, #1039, #543, #968 ) ) ;
#42 = ORIENTED_EDGE ( 'NONE', *, *, #7, .F. ) ;
#43 =( GEOMETRIC_REPRESENTATION_CONTEXT ( 3 ) GLOBAL_UNCERTAINTY_ASSIGNED_CONTEXT ( ( #919 ) ) GLOBAL_UNIT_ASSIGNED_CONTEXT ( ( #768, #37, #498 ) ) REPRESENTATION_CONTEXT ( 'NONE', 'WORKASPACE' ) );
#44 = AXIS2_PLACEMENT_3D ( 'NONE', #432, #985, #887 ) ;
#45 = DIRECTION ( 'NONE',  ( -0.000000000000000000, -1.000000000000000000, -0.000000000000000000 ) ) ;
#46 = ORIENTED_EDGE ( 'NONE', *, *, #211, .T. ) ;
#47 = PRODUCT_DEFINITION_CONTEXT ( 'detailed design', #517, 'design' ) ;
#48 = CARTESIAN_POINT ( 'NONE',  ( -13.79999999999999893, 12.00000000000000000, -1.500000000000000222 ) ) ;
#49 = EDGE_LOOP ( 'NONE', ( #619, #127, #499, #228 ) ) ;
#50 = ORIENTED_EDGE ( 'NONE', *, *, #412, .T. ) ;
#51 = EDGE_CURVE ( 'NONE', #137, #3, #788, .T. ) ;
#52 = PLANE ( 'NONE',  #22 ) ;
#53 = DIRECTION ( 'NONE',  ( 0.000000000000000000, 0.000000000000000000, 1.000000000000000000 ) ) ;
#54 = DIRECTION ( 'NONE',  ( 0.000000000000000000, 1.000000000000000000, 0.000000000000000000 ) ) ;
#55 = ORIENTED_EDGE ( 'NONE', *, *, #193, .F. ) ;
#56 = EDGE_LOOP ( 'NONE', ( #69, #1151, #610, #1123 ) ) ;
#57 = ADVANCED_FACE ( 'NONE', ( #1155 ), #701, .T. ) ;
#58 = PLANE ( 'NONE',  #546 ) ;
#59 = DIRECTION ( 'NONE',  ( 1.000000000000000000, 0.000000000000000000, 2.891205793294678326E-16 ) ) ;
#60 = PLANE ( 'NONE',  #813 ) ;
#61 = DIRECTION ( 'NONE',  ( -0.000000000000000000, -1.000000000000000000, -0.000000000000000000 ) ) ;
#62 = VERTEX_POINT ( 'NONE', #596 ) ;
#63 = EDGE_LOOP ( 'NONE', ( #805, #571 ) ) ;
#64 = LINE ( 'NONE', #1076, #197 ) ;
#65 = CARTESIAN_POINT ( 'NONE',  ( -13.79999999999999893, 0.000000000000000000, -1.500000000000000222 ) ) ;
#66 = DIRECTION ( 'NONE',  ( -1.000000000000000000, 0.000000000000000000, -1.275531967630005245E-16 ) ) ;
#67 = LINE ( 'NONE', #336, #1115 ) ;
#68 = DIRECTION ( 'NONE',  ( -1.000000000000000000, 0.000000000000000000, 2.891205793294678326E-16 ) ) ;
#69 = ORIENTED_EDGE ( 'NONE', *, *, #1170, .F. ) ;
#70 = VERTEX_POINT ( 'NONE', #523 ) ;
#71 = EDGE_CURVE ( 'NONE', #85, #475, #964, .T. ) ;
#72 = AXIS2_PLACEMENT_3D ( 'NONE', #30, #489, #484 ) ;
#73 = CARTESIAN_POINT ( 'NONE',  ( -8.800000000000000711, 0.000000000000000000, 1.500000000000000444 ) ) ;
#74 = CARTESIAN_POINT ( 'NONE',  ( 5.800000000000000711, 12.00000000000000000, 0.000000000000000000 ) ) ;
#75 = DIRECTION ( 'NONE',  ( -0.000000000000000000, -1.000000000000000000, -0.000000000000000000 ) ) ;
#76 = LINE ( 'NONE', #534, #915 ) ;
#77 = CARTESIAN_POINT ( 'NONE',  ( -17.00000000000001776, 5.099999999999999645, -1.600000000000001865 ) ) ;
#78 = ORIENTED_EDGE ( 'NONE', *, *, #192, .T. ) ;
#79 = LINE ( 'NONE', #434, #550 ) ;
#80 = ORIENTED_EDGE ( 'NONE', *, *, #1009, .F. ) ;
#81 = CARTESIAN_POINT ( 'NONE',  ( -4.336808689942023652E-16, 12.00000000000000000, -1.500000000000002220 ) ) ;
#82 = VECTOR ( 'NONE', #429, 1000.000000000000000 ) ;
#83 = DIRECTION ( 'NONE',  ( -1.000000000000000000, 0.000000000000000000, 0.000000000000000000 ) ) ;
#84 = DIRECTION ( 'NONE',  ( 1.000000000000000000, 0.000000000000000000, -7.228014483236695816E-17 ) ) ;
#85 = VERTEX_POINT ( 'NONE', #1163 ) ;
#86 = DIRECTION ( 'NONE',  ( 0.000000000000000000, -1.000000000000000000, 0.000000000000000000 ) ) ;
#87 = CARTESIAN_POINT ( 'NONE',  ( 4.336808689942031048E-16, 12.00000000000000000, -1.500000000000004219 ) ) ;
#88 = VECTOR ( 'NONE', #66, 1000.000000000000000 ) ;
#89 = DIRECTION ( 'NONE',  ( 0.000000000000000000, 0.000000000000000000, 1.000000000000000000 ) ) ;
#90 = DIRECTION ( 'NONE',  ( 1.000000000000000000, 0.000000000000000000, 7.228014483236695816E-17 ) ) ;
#91 = ORIENTED_EDGE ( 'NONE', *, *, #822, .F. ) ;
#92 = CYLINDRICAL_SURFACE ( 'NONE', #845, 3.500000000000000000 ) ;
#93 = EDGE_CURVE ( 'NONE', #706, #386, #260, .T. ) ;
#94 = ORIENTED_EDGE ( 'NONE', *, *, #33, .F. ) ;
#95 = VECTOR ( 'NONE', #134, 1000.000000000000000 ) ;
#96 = VECTOR ( 'NONE', #732, 1000.000000000000000 ) ;
#97 = DIRECTION ( 'NONE',  ( 0.000000000000000000, 0.000000000000000000, 1.000000000000000000 ) ) ;
#98 = DIRECTION ( 'NONE',  ( -0.000000000000000000, -1.000000000000000000, -0.000000000000000000 ) ) ;
#99 = ORIENTED_EDGE ( 'NONE', *, *, #638, .T. ) ;
#100 = ADVANCED_FACE ( 'NONE', ( #324 ), #973, .T. ) ;
#101 = LINE ( 'NONE', #829, #551 ) ;
#102 = CARTESIAN_POINT ( 'NONE',  ( 4.336808689942023652E-16, 12.00000000000000000, -1.500000000000002220 ) ) ;
#103 = EDGE_CURVE ( 'NONE', #475, #386, #507, .T. ) ;
#104 = AXIS2_PLACEMENT_3D ( 'NONE', #486, #1135, #686 ) ;
#105 = CARTESIAN_POINT ( 'NONE',  ( 13.79999999999999716, 12.00000000000000000, 7.979727989493311057E-15 ) ) ;
#106 = FACE_OUTER_BOUND ( 'NONE', #573, .T. ) ;
#107 = ORIENTED_EDGE ( 'NONE', *, *, #649, .F. ) ;
#108 = EDGE_CURVE ( 'NONE', #482, #960, #781, .T. ) ;
#109 = FACE_OUTER_BOUND ( 'NONE', #721, .T. ) ;
#110 = EDGE_CURVE ( 'NONE', #298, #889, #267, .T. ) ;
#111 = DIRECTION ( 'NONE',  ( 0.000000000000000000, 0.000000000000000000, -1.000000000000000000 ) ) ;
#112 = FACE_OUTER_BOUND ( 'NONE', #745, .T. ) ;
#113 = DIRECTION ( 'NONE',  ( -5.782411586589356653E-16, 0.000000000000000000, -1.000000000000000000 ) ) ;
#114 = VECTOR ( 'NONE', #334, 1000.000000000000000 ) ;
#115 = CARTESIAN_POINT ( 'NONE',  ( 1.084202172485504927E-16, 0.000000000000000000, -1.500000000000000666 ) ) ;
#116 = ORIENTED_EDGE ( 'NONE', *, *, #649, .T. ) ;
#117 = CARTESIAN_POINT ( 'NONE',  ( -1.000000000000000000, 0.000000000000000000, 1.499999999999999334 ) ) ;
#118 = ORIENTED_EDGE ( 'NONE', *, *, #884, .F. ) ;
#119 = FILL_AREA_STYLE ('',( #749 ) ) ;
#120 = ORIENTED_EDGE ( 'NONE', *, *, #530, .T. ) ;
#121 = EDGE_CURVE ( 'NONE', #602, #353, #177, .T. ) ;
#122 = ADVANCED_FACE ( 'NONE', ( #541 ), #1001, .F. ) ;
#123 = DIRECTION ( 'NONE',  ( 1.000000000000000000, 0.000000000000000000, 1.445602896647339163E-16 ) ) ;
#124 = MECHANICAL_DESIGN_GEOMETRIC_PRESENTATION_REPRESENTATION (  '', ( #186 ), #43 ) ;
#125 = ORIENTED_EDGE ( 'NONE', *, *, #331, .T. ) ;
#126 = DIRECTION ( 'NONE',  ( -1.000000000000000000, 0.000000000000000000, 1.445602896647339163E-16 ) ) ;
#127 = ORIENTED_EDGE ( 'NONE', *, *, #368, .F. ) ;
#128 = CARTESIAN_POINT ( 'NONE',  ( -10.80000000000000071, 0.000000000000000000, -1.500000000000001110 ) ) ;
#129 = ORIENTED_EDGE ( 'NONE', *, *, #591, .F. ) ;
#130 = EDGE_LOOP ( 'NONE', ( #315, #488, #773, #861 ) ) ;
#131 = CLOSED_SHELL ( 'NONE', ( #473, #460, #841, #369, #420, #1147, #774, #307, #842, #329, #865, #352, #552, #969, #651, #1054, #870, #735, #427, #292, #738, #1164, #310, #1018, #1099, #1112, #444, #970, #771, #954 ) ) ;
#132 = PLANE ( 'NONE',  #383 ) ;
#133 = ORIENTED_EDGE ( 'NONE', *, *, #838, .T. ) ;
#134 = DIRECTION ( 'NONE',  ( -0.000000000000000000, -1.000000000000000000, -0.000000000000000000 ) ) ;
#135 = VECTOR ( 'NONE', #464, 1000.000000000000000 ) ;
#136 = ORIENTED_EDGE ( 'NONE', *, *, #203, .F. ) ;
#137 = VERTEX_POINT ( 'NONE', #639 ) ;
#138 = DIRECTION ( 'NONE',  ( -0.000000000000000000, -1.000000000000000000, -0.000000000000000000 ) ) ;
#139 = ORIENTED_EDGE ( 'NONE', *, *, #909, .F. ) ;
#140 = DIRECTION ( 'NONE',  ( 0.000000000000000000, 0.000000000000000000, 1.000000000000000000 ) ) ;
#141 = EDGE_CURVE ( 'NONE', #390, #496, #1158, .T. ) ;
#142 = VECTOR ( 'NONE', #1084, 1000.000000000000000 ) ;
#143 = ORIENTED_EDGE ( 'NONE', *, *, #1010, .T. ) ;
#144 = ORIENTED_EDGE ( 'NONE', *, *, #862, .F. ) ;
#145 = VECTOR ( 'NONE', #729, 1000.000000000000000 ) ;
#146 = DIRECTION ( 'NONE',  ( 1.000000000000000000, 0.000000000000000000, -1.445602896647339163E-16 ) ) ;
#147 = DIRECTION ( 'NONE',  ( 0.000000000000000000, -0.000000000000000000, 1.000000000000000000 ) ) ;
#148 = CARTESIAN_POINT ( 'NONE',  ( 16.99999999999998224, 5.099999999999999645, 0.000000000000000000 ) ) ;
#149 = CARTESIAN_POINT ( 'NONE',  ( -13.79999999999999716, 12.00000000000000000, 1.499999999999999778 ) ) ;
#150 = ADVANCED_BREP_SHAPE_REPRESENTATION ( 'pogo - pin', ( #933, #717 ), #301 ) ;
#151 = EDGE_LOOP ( 'NONE', ( #50, #1031, #934, #1033 ) ) ;
#152 = EDGE_LOOP ( 'NONE', ( #1127, #1029, #1117, #583 ) ) ;
#153 = DIRECTION ( 'NONE',  ( 0.000000000000000000, 0.000000000000000000, 1.000000000000000000 ) ) ;
#154 = DIRECTION ( 'NONE',  ( 0.000000000000000000, 0.000000000000000000, -1.000000000000000000 ) ) ;
#155 = CARTESIAN_POINT ( 'NONE',  ( -8.800000000000000711, 0.000000000000000000, -0.000000000000000000 ) ) ;
#156 = CARTESIAN_POINT ( 'NONE',  ( 13.79999999999999716, 12.00000000000000000, 1.499999999999999778 ) ) ;
#157 = LINE ( 'NONE', #629, #834 ) ;
#158 = CARTESIAN_POINT ( 'NONE',  ( 0.000000000000000000, 0.000000000000000000, 0.000000000000000000 ) ) ;
#159 = ORIENTED_EDGE ( 'NONE', *, *, #949, .T. ) ;
#160 = ORIENTED_EDGE ( 'NONE', *, *, #553, .T. ) ;
#161 = CARTESIAN_POINT ( 'NONE',  ( 0.000000000000000000, 0.000000000000000000, 0.000000000000000000 ) ) ;
#162 = DIRECTION ( 'NONE',  ( 0.000000000000000000, -0.000000000000000000, 1.000000000000000000 ) ) ;
#163 = EDGE_CURVE ( 'NONE', #70, #1067, #157, .T. ) ;
#164 = CARTESIAN_POINT ( 'NONE',  ( 16.99999999999998579, 12.00000000000000000, 3.500000000000000000 ) ) ;
#165 = EDGE_CURVE ( 'NONE', #698, #390, #440, .T. ) ;
#166 = PLANE ( 'NONE',  #692 ) ;
#167 = CARTESIAN_POINT ( 'NONE',  ( -1.084202172485503941E-16, 12.00000000000000000, 1.499999999999999334 ) ) ;
#168 = DIRECTION ( 'NONE',  ( 0.000000000000000000, -1.000000000000000000, 0.000000000000000000 ) ) ;
#169 = VERTEX_POINT ( 'NONE', #337 ) ;
#170 = ORIENTED_EDGE ( 'NONE', *, *, #796, .F. ) ;
#171 = CARTESIAN_POINT ( 'NONE',  ( -17.00000000000001066, 12.00000000000000000, 3.500000000000004441 ) ) ;
#172 = CARTESIAN_POINT ( 'NONE',  ( 8.800000000000000711, 12.00000000000000000, 1.500000000000000444 ) ) ;
#173 = CARTESIAN_POINT ( 'NONE',  ( -17.00000000000001066, 0.000000000000000000, -3.500000000000004441 ) ) ;
#174 = CARTESIAN_POINT ( 'NONE',  ( 10.80000000000000071, 0.000000000000000000, 1.499999999999999112 ) ) ;
#175 = ORIENTED_EDGE ( 'NONE', *, *, #1170, .T. ) ;
#176 = DIRECTION ( 'NONE',  ( -1.000000000000000000, 0.000000000000000000, -2.168404344971010594E-16 ) ) ;
#177 = CIRCLE ( 'NONE', #739, 1.600000000000001865 ) ;
#178 = FACE_OUTER_BOUND ( 'NONE', #151, .T. ) ;
#179 = CARTESIAN_POINT ( 'NONE',  ( 13.79999999999999716, 0.000000000000000000, 7.979727989493311057E-15 ) ) ;
#180 = ORIENTED_EDGE ( 'NONE', *, *, #5, .F. ) ;
#181 = DIRECTION ( 'NONE',  ( 2.168404344971010594E-16, 0.000000000000000000, -1.000000000000000000 ) ) ;
#182 = EDGE_CURVE ( 'NONE', #888, #309, #712, .T. ) ;
#183 = LINE ( 'NONE', #1097, #1006 ) ;
#184 = FACE_BOUND ( 'NONE', #750, .T. ) ;
#185 = EDGE_CURVE ( 'NONE', #321, #70, #423, .T. ) ;
#186 = STYLED_ITEM ( 'NONE', ( #570 ), #933 ) ;
#187 = VECTOR ( 'NONE', #643, 1000.000000000000000 ) ;
#188 = CARTESIAN_POINT ( 'NONE',  ( 1.000000000000000000, 12.00000000000000000, -1.500000000000000666 ) ) ;
#189 = CARTESIAN_POINT ( 'NONE',  ( -13.79999999999999716, 0.000000000000000000, 1.499999999999999778 ) ) ;
#190 = CARTESIAN_POINT ( 'NONE',  ( 4.464361886705021564E-16, 12.00000000000000000, 3.500000000000002220 ) ) ;
#191 = DIRECTION ( 'NONE',  ( -1.000000000000000000, 0.000000000000000000, -2.891205793294678819E-16 ) ) ;
#192 = EDGE_CURVE ( 'NONE', #888, #482, #276, .T. ) ;
#193 = EDGE_CURVE ( 'NONE', #938, #169, #817, .T. ) ;
#194 = VECTOR ( 'NONE', #283, 1000.000000000000000 ) ;
#195 = FACE_OUTER_BOUND ( 'NONE', #536, .T. ) ;
#196 = CYLINDRICAL_SURFACE ( 'NONE', #445, 3.500000000000004441 ) ;
#197 = VECTOR ( 'NONE', #874, 1000.000000000000000 ) ;
#198 = FACE_OUTER_BOUND ( 'NONE', #1130, .T. ) ;
#199 = DIRECTION ( 'NONE',  ( -0.000000000000000000, -1.000000000000000000, -0.000000000000000000 ) ) ;
#200 = DIRECTION ( 'NONE',  ( 0.000000000000000000, 0.000000000000000000, -1.000000000000000000 ) ) ;
#201 = ORIENTED_EDGE ( 'NONE', *, *, #796, .T. ) ;
#202 = DIRECTION ( 'NONE',  ( 5.782411586589356653E-16, 0.000000000000000000, 1.000000000000000000 ) ) ;
#203 = EDGE_CURVE ( 'NONE', #309, #960, #183, .T. ) ;
#204 = ORIENTED_EDGE ( 'NONE', *, *, #14, .T. ) ;
#205 = EDGE_CURVE ( 'NONE', #594, #9, #624, .T. ) ;
#206 = EDGE_CURVE ( 'NONE', #490, #1161, #358, .T. ) ;
#207 = LINE ( 'NONE', #311, #939 ) ;
#208 = EDGE_LOOP ( 'NONE', ( #35, #397, #455, #305 ) ) ;
#209 = CARTESIAN_POINT ( 'NONE',  ( 1.000000000000000000, 0.000000000000000000, 1.499999999999999334 ) ) ;
#210 = ORIENTED_EDGE ( 'NONE', *, *, #641, .T. ) ;
#211 = EDGE_CURVE ( 'NONE', #487, #365, #886, .T. ) ;
#212 = SURFACE_STYLE_USAGE ( .BOTH. , #1113 ) ;
#213 = VERTEX_POINT ( 'NONE', #254 ) ;
#214 = LINE ( 'NONE', #658, #847 ) ;
#215 = AXIS2_PLACEMENT_3D ( 'NONE', #940, #399, #380 ) ;
#216 = VERTEX_POINT ( 'NONE', #173 ) ;
#217 = ORIENTED_EDGE ( 'NONE', *, *, #1082, .T. ) ;
#218 = CARTESIAN_POINT ( 'NONE',  ( -17.00000000000001066, 0.000000000000000000, 3.500000000000004441 ) ) ;
#219 = ORIENTED_EDGE ( 'NONE', *, *, #663, .F. ) ;
#220 = DIRECTION ( 'NONE',  ( -0.000000000000000000, -1.000000000000000000, -0.000000000000000000 ) ) ;
#221 = VERTEX_POINT ( 'NONE', #616 ) ;
#222 = ORIENTED_EDGE ( 'NONE', *, *, #5, .T. ) ;
#223 = EDGE_CURVE ( 'NONE', #698, #1048, #984, .T. ) ;
#224 = VECTOR ( 'NONE', #704, 1000.000000000000000 ) ;
#225 = ORIENTED_EDGE ( 'NONE', *, *, #617, .F. ) ;
#226 = EDGE_CURVE ( 'NONE', #490, #1160, #526, .T. ) ;
#227 = LINE ( 'NONE', #48, #1021 ) ;
#228 = ORIENTED_EDGE ( 'NONE', *, *, #248, .T. ) ;
#229 = ORIENTED_EDGE ( 'NONE', *, *, #601, .F. ) ;
#230 = VECTOR ( 'NONE', #702, 1000.000000000000000 ) ;
#231 = ORIENTED_CLOSED_SHELL ( 'NONE', *, #863, .F. );
#232 = CYLINDRICAL_SURFACE ( 'NONE', #957, 1.600000000000001865 ) ;
#233 = DIRECTION ( 'NONE',  ( 0.000000000000000000, 1.000000000000000000, 0.000000000000000000 ) ) ;
#234 = DIRECTION ( 'NONE',  ( -1.000000000000000000, 0.000000000000000000, 1.445602896647339163E-16 ) ) ;
#235 = LINE ( 'NONE', #149, #95 ) ;
#236 = AXIS2_PLACEMENT_3D ( 'NONE', #306, #54, #39 ) ;
#237 = ORIENTED_EDGE ( 'NONE', *, *, #33, .T. ) ;
#238 = ORIENTED_EDGE ( 'NONE', *, *, #664, .T. ) ;
#239 = VECTOR ( 'NONE', #955, 1000.000000000000000 ) ;
#240 = VECTOR ( 'NONE', #894, 1000.000000000000000 ) ;
#241 = PLANE ( 'NONE',  #1016 ) ;
#242 = DIRECTION ( 'NONE',  ( 1.000000000000000000, 0.000000000000000000, 2.891205793294678326E-16 ) ) ;
#243 = CARTESIAN_POINT ( 'NONE',  ( 4.000000000000000000, 12.00000000000000000, 0.000000000000000000 ) ) ;
#244 = DIRECTION ( 'NONE',  ( 0.000000000000000000, 0.000000000000000000, -1.000000000000000000 ) ) ;
#245 =( NAMED_UNIT ( * ) SI_UNIT ( $, .STERADIAN. ) SOLID_ANGLE_UNIT ( ) );
#246 = EDGE_LOOP ( 'NONE', ( #896, #1143, #618, #29 ) ) ;
#247 = ORIENTED_EDGE ( 'NONE', *, *, #206, .T. ) ;
#248 = EDGE_CURVE ( 'NONE', #1048, #391, #76, .T. ) ;
#249 = EDGE_CURVE ( 'NONE', #213, #485, #384, .T. ) ;
#250 = CARTESIAN_POINT ( 'NONE',  ( -8.800000000000000711, 12.00000000000000000, -1.499999999999999556 ) ) ;
#251 = CARTESIAN_POINT ( 'NONE',  ( -17.00000000000001776, 0.5999999999999999778, 0.000000000000000000 ) ) ;
#252 = LINE ( 'NONE', #1052, #923 ) ;
#253 = LINE ( 'NONE', #718, #549 ) ;
#254 = CARTESIAN_POINT ( 'NONE',  ( -17.00000000000001776, 0.5999999999999999778, 1.600000000000001865 ) ) ;
#255 = DIRECTION ( 'NONE',  ( 0.000000000000000000, -1.000000000000000000, 0.000000000000000000 ) ) ;
#256 = ORIENTED_EDGE ( 'NONE', *, *, #249, .T. ) ;
#257 = ORIENTED_EDGE ( 'NONE', *, *, #4, .F. ) ;
#258 = CIRCLE ( 'NONE', #912, 1.600000000000001865 ) ;
#259 = PLANE ( 'NONE',  #652 ) ;
#260 = LINE ( 'NONE', #1146, #470 ) ;
#261 = FACE_OUTER_BOUND ( 'NONE', #879, .T. ) ;
#262 = CARTESIAN_POINT ( 'NONE',  ( -4.000000000000000000, 12.00000000000000000, 0.000000000000000000 ) ) ;
#263 = VERTEX_POINT ( 'NONE', #456 ) ;
#264 = CARTESIAN_POINT ( 'NONE',  ( 16.99999999999998224, 12.00000000000000000, 0.000000000000000000 ) ) ;
#265 = EDGE_CURVE ( 'NONE', #723, #603, #823, .T. ) ;
#266 = DIRECTION ( 'NONE',  ( 1.000000000000000000, 0.000000000000000000, -7.228014483236695816E-17 ) ) ;
#267 = LINE ( 'NONE', #179, #1045 ) ;
#268 = ORIENTED_EDGE ( 'NONE', *, *, #7, .T. ) ;
#269 = DIRECTION ( 'NONE',  ( 0.000000000000000000, 1.000000000000000000, -0.000000000000000000 ) ) ;
#270 = PRODUCT_DEFINITION_SHAPE ( 'NONE', 'NONE',  #316 ) ;
#271 = ORIENTED_EDGE ( 'NONE', *, *, #1086, .F. ) ;
#272 = DIRECTION ( 'NONE',  ( 5.782411586589356653E-16, 0.000000000000000000, -1.000000000000000000 ) ) ;
#273 = PLANE ( 'NONE',  #396 ) ;
#274 = CARTESIAN_POINT ( 'NONE',  ( 13.79999999999999893, 12.00000000000000000, -1.500000000000000222 ) ) ;
#275 = ORIENTED_EDGE ( 'NONE', *, *, #636, .F. ) ;
#276 = LINE ( 'NONE', #792, #501 ) ;
#277 = PLANE ( 'NONE',  #642 ) ;
#278 = AXIS2_PLACEMENT_3D ( 'NONE', #102, #827, #280 ) ;
#279 = CARTESIAN_POINT ( 'NONE',  ( 10.80000000000000071, 0.000000000000000000, 0.000000000000000000 ) ) ;
#280 = DIRECTION ( 'NONE',  ( -1.000000000000000000, 0.000000000000000000, -2.891205793294678326E-16 ) ) ;
#281 = DIRECTION ( 'NONE',  ( -0.000000000000000000, -1.000000000000000000, -0.000000000000000000 ) ) ;
#282 = AXIS2_PLACEMENT_3D ( 'NONE', #251, #233, #162 ) ;
#283 = DIRECTION ( 'NONE',  ( 1.000000000000000000, 0.000000000000000000, -7.228014483236695816E-17 ) ) ;
#284 = VECTOR ( 'NONE', #220, 1000.000000000000000 ) ;
#285 = PLANE ( 'NONE',  #819 ) ;
#286 = LINE ( 'NONE', #1014, #194 ) ;
#287 = CIRCLE ( 'NONE', #592, 3.500000000000000000 ) ;
#288 = VECTOR ( 'NONE', #802, 1000.000000000000000 ) ;
#289 = LINE ( 'NONE', #478, #910 ) ;
#290 = VECTOR ( 'NONE', #401, 1000.000000000000000 ) ;
#291 = VECTOR ( 'NONE', #634, 1000.000000000000000 ) ;
#292 = ADVANCED_FACE ( 'NONE', ( #109 ), #1019, .T. ) ;
#293 = DIRECTION ( 'NONE',  ( 0.000000000000000000, 0.000000000000000000, 1.000000000000000000 ) ) ;
#294 = ORIENTED_EDGE ( 'NONE', *, *, #935, .F. ) ;
#295 = CARTESIAN_POINT ( 'NONE',  ( -10.80000000000000071, 12.00000000000000000, -1.500000000000001110 ) ) ;
#296 = DIRECTION ( 'NONE',  ( 0.000000000000000000, 1.000000000000000000, 0.000000000000000000 ) ) ;
#297 = FACE_OUTER_BOUND ( 'NONE', #1095, .T. ) ;
#298 = VERTEX_POINT ( 'NONE', #370 ) ;
#299 = ORIENTED_EDGE ( 'NONE', *, *, #1082, .F. ) ;
#300 = LINE ( 'NONE', #667, #135 ) ;
#301 =( GEOMETRIC_REPRESENTATION_CONTEXT ( 3 ) GLOBAL_UNCERTAINTY_ASSIGNED_CONTEXT ( ( #684 ) ) GLOBAL_UNIT_ASSIGNED_CONTEXT ( ( #1159, #535, #245 ) ) REPRESENTATION_CONTEXT ( 'NONE', 'WORKASPACE' ) );
#302 = ORIENTED_EDGE ( 'NONE', *, *, #185, .F. ) ;
#303 = ORIENTED_EDGE ( 'NONE', *, *, #1065, .T. ) ;
#304 = CARTESIAN_POINT ( 'NONE',  ( 10.80000000000000071, 0.000000000000000000, -1.500000000000001110 ) ) ;
#305 = ORIENTED_EDGE ( 'NONE', *, *, #815, .F. ) ;
#306 = CARTESIAN_POINT ( 'NONE',  ( -17.00000000000001776, 5.099999999999999645, 0.000000000000000000 ) ) ;
#307 = ADVANCED_FACE ( 'NONE', ( #195 ), #556, .F. ) ;
#308 = ORIENTED_EDGE ( 'NONE', *, *, #1057, .T. ) ;
#309 = VERTEX_POINT ( 'NONE', #736 ) ;
#310 = ADVANCED_FACE ( 'NONE', ( #917 ), #10, .T. ) ;
#311 = CARTESIAN_POINT ( 'NONE',  ( 2.168404344971007389E-16, 12.00000000000000000, 1.499999999999999112 ) ) ;
#312 = ORIENTED_EDGE ( 'NONE', *, *, #193, .T. ) ;
#313 = LINE ( 'NONE', #509, #284 ) ;
#314 = ORIENTED_EDGE ( 'NONE', *, *, #754, .F. ) ;
#315 = ORIENTED_EDGE ( 'NONE', *, *, #34, .T. ) ;
#316 = PRODUCT_DEFINITION ( 'UNKNOWN', '', #494, #47 ) ;
#317 = VECTOR ( 'NONE', #242, 1000.000000000000000 ) ;
#318 = FACE_OUTER_BOUND ( 'NONE', #674, .T. ) ;
#319 = EDGE_LOOP ( 'NONE', ( #1178, #225, #55, #36 ) ) ;
#320 = DIRECTION ( 'NONE',  ( 0.000000000000000000, 0.000000000000000000, 1.000000000000000000 ) ) ;
#321 = VERTEX_POINT ( 'NONE', #15 ) ;
#322 = ORIENTED_EDGE ( 'NONE', *, *, #754, .T. ) ;
#323 = DIRECTION ( 'NONE',  ( 0.000000000000000000, 1.000000000000000000, -0.000000000000000000 ) ) ;
#324 = FACE_OUTER_BOUND ( 'NONE', #63, .T. ) ;
#325 = CARTESIAN_POINT ( 'NONE',  ( -10.80000000000000071, 0.000000000000000000, 1.499999999999999112 ) ) ;
#326 = DIRECTION ( 'NONE',  ( 0.000000000000000000, 0.000000000000000000, 1.000000000000000000 ) ) ;
#327 = ORIENTED_EDGE ( 'NONE', *, *, #226, .F. ) ;
#328 = ORIENTED_EDGE ( 'NONE', *, *, #411, .F. ) ;
#329 = ADVANCED_FACE ( 'NONE', ( #925 ), #647, .T. ) ;
#330 = CIRCLE ( 'NONE', #426, 1.600000000000001865 ) ;
#331 = EDGE_CURVE ( 'NONE', #70, #263, #466, .T. ) ;
#332 = VECTOR ( 'NONE', #113, 1000.000000000000000 ) ;
#333 = FACE_BOUND ( 'NONE', #855, .T. ) ;
#334 = DIRECTION ( 'NONE',  ( -0.000000000000000000, -1.000000000000000000, -0.000000000000000000 ) ) ;
#335 = DIRECTION ( 'NONE',  ( -0.000000000000000000, -1.000000000000000000, -0.000000000000000000 ) ) ;
#336 = CARTESIAN_POINT ( 'NONE',  ( 1.000000000000000000, 0.000000000000000000, 0.000000000000000000 ) ) ;
#337 = CARTESIAN_POINT ( 'NONE',  ( -13.79999999999999893, 12.00000000000000000, -1.500000000000000222 ) ) ;
#338 = ORIENTED_EDGE ( 'NONE', *, *, #935, .T. ) ;
#339 = EDGE_LOOP ( 'NONE', ( #160, #256 ) ) ;
#340 = DIRECTION ( 'NONE',  ( -0.000000000000000000, -1.000000000000000000, -0.000000000000000000 ) ) ;
#341 = CARTESIAN_POINT ( 'NONE',  ( -17.00000000000001776, 12.00000000000000000, 0.000000000000000000 ) ) ;
#342 = PLANE ( 'NONE',  #655 ) ;
#343 = DIRECTION ( 'NONE',  ( 1.000000000000000000, 0.000000000000000000, 1.445602896647339163E-16 ) ) ;
#344 = FACE_OUTER_BOUND ( 'NONE', #528, .T. ) ;
#345 = EDGE_LOOP ( 'NONE', ( #268, #451, #1119, #120 ) ) ;
#346 = LINE ( 'NONE', #537, #846 ) ;
#347 = ORIENTED_EDGE ( 'NONE', *, *, #971, .F. ) ;
#348 = VECTOR ( 'NONE', #1138, 1000.000000000000000 ) ;
#349 = DIRECTION ( 'NONE',  ( -0.000000000000000000, -1.000000000000000000, -0.000000000000000000 ) ) ;
#350 = CARTESIAN_POINT ( 'NONE',  ( 10.80000000000000071, 12.00000000000000000, 0.000000000000000000 ) ) ;
#351 = DIRECTION ( 'NONE',  ( -7.228014483236695816E-17, 0.000000000000000000, 1.000000000000000000 ) ) ;
#352 = ADVANCED_FACE ( 'NONE', ( #198 ), #285, .F. ) ;
#353 = VERTEX_POINT ( 'NONE', #377 ) ;
#354 = DIRECTION ( 'NONE',  ( -0.000000000000000000, -1.000000000000000000, -0.000000000000000000 ) ) ;
#355 = VECTOR ( 'NONE', #244, 1000.000000000000000 ) ;
#356 = VECTOR ( 'NONE', #913, 1000.000000000000000 ) ;
#357 = EDGE_CURVE ( 'NONE', #405, #24, #101, .T. ) ;
#358 = LINE ( 'NONE', #1175, #28 ) ;
#359 = DIRECTION ( 'NONE',  ( 0.000000000000000000, 0.000000000000000000, 1.000000000000000000 ) ) ;
#360 = ORIENTED_EDGE ( 'NONE', *, *, #797, .F. ) ;
#361 = CARTESIAN_POINT ( 'NONE',  ( -5.800000000000000711, 12.00000000000000000, 1.500000000000000000 ) ) ;
#362 = VERTEX_POINT ( 'NONE', #459 ) ;
#363 = CARTESIAN_POINT ( 'NONE',  ( 4.464361886705021564E-16, 12.00000000000000000, -3.500000000000002220 ) ) ;
#364 = FACE_BOUND ( 'NONE', #755, .T. ) ;
#365 = VERTEX_POINT ( 'NONE', #653 ) ;
#366 = DIRECTION ( 'NONE',  ( -1.000000000000000000, 0.000000000000000000, 0.000000000000000000 ) ) ;
#367 = DIRECTION ( 'NONE',  ( -0.000000000000000000, -1.000000000000000000, -0.000000000000000000 ) ) ;
#368 = EDGE_CURVE ( 'NONE', #924, #495, #1101, .T. ) ;
#369 = ADVANCED_FACE ( 'NONE', ( #112 ), #469, .F. ) ;
#370 = CARTESIAN_POINT ( 'NONE',  ( 13.79999999999999716, 0.000000000000000000, 1.499999999999999778 ) ) ;
#371 = CARTESIAN_POINT ( 'NONE',  ( 16.99999999999998224, 0.5999999999999999778, -1.600000000000001865 ) ) ;
#372 = DIRECTION ( 'NONE',  ( -1.000000000000000000, 0.000000000000000000, -5.782411586589356653E-16 ) ) ;
#373 = CIRCLE ( 'NONE', #585, 3.500000000000004441 ) ;
#374 = DIRECTION ( 'NONE',  ( -1.000000000000000000, 0.000000000000000000, 1.275531967630005245E-16 ) ) ;
#375 = EDGE_CURVE ( 'NONE', #1161, #852, #826, .T. ) ;
#376 = LINE ( 'NONE', #115, #239 ) ;
#377 = CARTESIAN_POINT ( 'NONE',  ( 16.99999999999998224, 5.099999999999999645, 1.600000000000001865 ) ) ;
#378 = DIRECTION ( 'NONE',  ( 0.000000000000000000, -1.000000000000000000, 0.000000000000000000 ) ) ;
#379 = ORIENTED_EDGE ( 'NONE', *, *, #414, .T. ) ;
#380 = DIRECTION ( 'NONE',  ( 0.000000000000000000, 0.000000000000000000, 1.000000000000000000 ) ) ;
#381 = ORIENTED_EDGE ( 'NONE', *, *, #121, .F. ) ;
#382 = AXIS2_PLACEMENT_3D ( 'NONE', #1046, #871, #326 ) ;
#383 = AXIS2_PLACEMENT_3D ( 'NONE', #1032, #574, #665 ) ;
#384 = CIRCLE ( 'NONE', #1060, 1.600000000000001865 ) ;
#385 = DIRECTION ( 'NONE',  ( -0.000000000000000000, -1.000000000000000000, -0.000000000000000000 ) ) ;
#386 = VERTEX_POINT ( 'NONE', #567 ) ;
#387 = LINE ( 'NONE', #582, #27 ) ;
#388 = ORIENTED_EDGE ( 'NONE', *, *, #822, .T. ) ;
#389 = CARTESIAN_POINT ( 'NONE',  ( -5.800000000000000711, 0.000000000000000000, -1.500000000000000444 ) ) ;
#390 = VERTEX_POINT ( 'NONE', #1108 ) ;
#391 = VERTEX_POINT ( 'NONE', #209 ) ;
#392 = EDGE_LOOP ( 'NONE', ( #222, #398, #99, #1169 ) ) ;
#393 = EDGE_CURVE ( 'NONE', #967, #666, #214, .T. ) ;
#394 = AXIS2_PLACEMENT_3D ( 'NONE', #1025, #926, #293 ) ;
#395 = LINE ( 'NONE', #765, #355 ) ;
#396 = AXIS2_PLACEMENT_3D ( 'NONE', #1177, #351, #90 ) ;
#397 = ORIENTED_EDGE ( 'NONE', *, *, #565, .T. ) ;
#398 = ORIENTED_EDGE ( 'NONE', *, *, #393, .F. ) ;
#399 = DIRECTION ( 'NONE',  ( 0.000000000000000000, 1.000000000000000000, 0.000000000000000000 ) ) ;
#400 = VERTEX_POINT ( 'NONE', #371 ) ;
#401 = DIRECTION ( 'NONE',  ( 5.782411586589356653E-16, 0.000000000000000000, -1.000000000000000000 ) ) ;
#402 = ORIENTED_EDGE ( 'NONE', *, *, #141, .F. ) ;
#403 = ORIENTED_EDGE ( 'NONE', *, *, #375, .T. ) ;
#404 = LINE ( 'NONE', #409, #348 ) ;
#405 = VERTEX_POINT ( 'NONE', #117 ) ;
#406 = CARTESIAN_POINT ( 'NONE',  ( -10.80000000000000071, 12.00000000000000000, 0.000000000000000000 ) ) ;
#407 = ORIENTED_EDGE ( 'NONE', *, *, #641, .F. ) ;
#408 = VERTEX_POINT ( 'NONE', #467 ) ;
#409 = CARTESIAN_POINT ( 'NONE',  ( -1.000000000000000000, 12.00000000000000000, 1.499999999999999334 ) ) ;
#410 = DIRECTION ( 'NONE',  ( -1.000000000000000000, 0.000000000000000000, 2.891205793294678326E-16 ) ) ;
#411 = EDGE_CURVE ( 'NONE', #837, #9, #476, .T. ) ;
#412 = EDGE_CURVE ( 'NONE', #760, #1066, #922, .T. ) ;
#413 = LINE ( 'NONE', #883, #88 ) ;
#414 = EDGE_CURVE ( 'NONE', #85, #706, #20, .T. ) ;
#415 = PLANE ( 'NONE',  #236 ) ;
#416 = ORIENTED_EDGE ( 'NONE', *, *, #182, .T. ) ;
#417 = ORIENTED_EDGE ( 'NONE', *, *, #165, .F. ) ;
#418 = FACE_OUTER_BOUND ( 'NONE', #580, .T. ) ;
#419 = CARTESIAN_POINT ( 'NONE',  ( -3.252606517456508865E-16, 0.000000000000000000, 1.499999999999996669 ) ) ;
#420 = ADVANCED_FACE ( 'NONE', ( #1034 ), #471, .F. ) ;
#421 = CARTESIAN_POINT ( 'NONE',  ( -8.800000000000000711, 12.00000000000000000, 1.500000000000000444 ) ) ;
#422 = DIRECTION ( 'NONE',  ( 0.000000000000000000, 1.000000000000000000, 0.000000000000000000 ) ) ;
#423 = LINE ( 'NONE', #262, #454 ) ;
#424 = ORIENTED_EDGE ( 'NONE', *, *, #563, .F. ) ;
#425 = ORIENTED_EDGE ( 'NONE', *, *, #468, .F. ) ;
#426 = AXIS2_PLACEMENT_3D ( 'NONE', #555, #635, #544 ) ;
#427 = ADVANCED_FACE ( 'NONE', ( #1114 ), #196, .T. ) ;
#428 = CARTESIAN_POINT ( 'NONE',  ( -1.000000000000000000, 12.00000000000000000, 0.000000000000000000 ) ) ;
#429 = DIRECTION ( 'NONE',  ( 0.000000000000000000, 0.000000000000000000, -1.000000000000000000 ) ) ;
#430 = DIRECTION ( 'NONE',  ( 0.000000000000000000, -1.000000000000000000, 0.000000000000000000 ) ) ;
#431 = CARTESIAN_POINT ( 'NONE',  ( -4.336808689942023652E-16, 0.000000000000000000, -1.500000000000002220 ) ) ;
#432 = CARTESIAN_POINT ( 'NONE',  ( -4.336808689942031048E-16, 12.00000000000000000, -1.500000000000004219 ) ) ;
#433 = EDGE_LOOP ( 'NONE', ( #381, #587 ) ) ;
#434 = CARTESIAN_POINT ( 'NONE',  ( -4.000000000000000000, 0.000000000000000000, -0.000000000000000000 ) ) ;
#435 = EDGE_LOOP ( 'NONE', ( #347, #1167, #175, #1037 ) ) ;
#436 = VECTOR ( 'NONE', #980, 1000.000000000000000 ) ;
#437 = LINE ( 'NONE', #1069, #678 ) ;
#438 = EDGE_CURVE ( 'NONE', #321, #38, #16, .T. ) ;
#439 = CARTESIAN_POINT ( 'NONE',  ( -1.084202172485504927E-16, 0.000000000000000000, -1.500000000000000666 ) ) ;
#440 = LINE ( 'NONE', #719, #1141 ) ;
#441 = DIRECTION ( 'NONE',  ( -0.000000000000000000, -1.000000000000000000, -0.000000000000000000 ) ) ;
#442 = ORIENTED_EDGE ( 'NONE', *, *, #512, .F. ) ;
#443 = LINE ( 'NONE', #457, #1059 ) ;
#444 = ADVANCED_FACE ( 'NONE', ( #833 ), #741, .F. ) ;
#445 = AXIS2_PLACEMENT_3D ( 'NONE', #562, #199, #111 ) ;
#446 = VECTOR ( 'NONE', #522, 1000.000000000000000 ) ;
#447 = LINE ( 'NONE', #439, #1058 ) ;
#448 = DIRECTION ( 'NONE',  ( 0.000000000000000000, -0.000000000000000000, 1.000000000000000000 ) ) ;
#449 = ORIENTED_CLOSED_SHELL ( 'NONE', *, #497, .F. );
#450 = DIRECTION ( 'NONE',  ( -1.000000000000000000, 0.000000000000000000, 0.000000000000000000 ) ) ;
#451 = ORIENTED_EDGE ( 'NONE', *, *, #248, .F. ) ;
#452 = LINE ( 'NONE', #461, #142 ) ;
#453 = VECTOR ( 'NONE', #1172, 1000.000000000000000 ) ;
#454 = VECTOR ( 'NONE', #905, 1000.000000000000000 ) ;
#455 = ORIENTED_EDGE ( 'NONE', *, *, #576, .F. ) ;
#456 = CARTESIAN_POINT ( 'NONE',  ( -4.000000000000000000, 0.000000000000000000, -1.500000000000000444 ) ) ;
#457 = CARTESIAN_POINT ( 'NONE',  ( 16.99999999999998224, 5.099999999999999645, -1.600000000000001865 ) ) ;
#458 = ADVANCED_FACE ( 'NONE', ( #106 ), #568, .F. ) ;
#459 = CARTESIAN_POINT ( 'NONE',  ( 16.99999999999998224, 0.5999999999999999778, 1.600000000000001865 ) ) ;
#460 = ADVANCED_FACE ( 'NONE', ( #297 ), #928, .F. ) ;
#461 = CARTESIAN_POINT ( 'NONE',  ( -4.336808689942031048E-16, 12.00000000000000000, -1.500000000000004219 ) ) ;
#462 = AXIS2_PLACEMENT_3D ( 'NONE', #481, #752, #836 ) ;
#463 = DIRECTION ( 'NONE',  ( -1.000000000000000000, 0.000000000000000000, 7.228014483236695816E-17 ) ) ;
#464 = DIRECTION ( 'NONE',  ( 1.000000000000000000, 0.000000000000000000, -7.228014483236695816E-17 ) ) ;
#465 = EDGE_LOOP ( 'NONE', ( #238, #312, #1083, #407 ) ) ;
#466 = LINE ( 'NONE', #19, #1116 ) ;
#467 = CARTESIAN_POINT ( 'NONE',  ( -8.800000000000000711, 12.00000000000000000, 1.500000000000000444 ) ) ;
#468 = EDGE_CURVE ( 'NONE', #321, #221, #286, .T. ) ;
#469 = PLANE ( 'NONE',  #695 ) ;
#470 = VECTOR ( 'NONE', #622, 1000.000000000000000 ) ;
#471 = PLANE ( 'NONE',  #1078 ) ;
#472 = EDGE_LOOP ( 'NONE', ( #136, #671, #1056, #867 ) ) ;
#473 = ADVANCED_FACE ( 'NONE', ( #1105 ), #566, .T. ) ;
#474 = CARTESIAN_POINT ( 'NONE',  ( 13.79999999999999716, 12.00000000000000000, 1.499999999999999778 ) ) ;
#475 = VERTEX_POINT ( 'NONE', #648 ) ;
#476 = LINE ( 'NONE', #843, #332 ) ;
#477 = ORIENTED_EDGE ( 'NONE', *, *, #1176, .T. ) ;
#478 = CARTESIAN_POINT ( 'NONE',  ( -10.80000000000000071, 0.000000000000000000, -0.000000000000000000 ) ) ;
#479 = ORIENTED_EDGE ( 'NONE', *, *, #108, .F. ) ;
#480 = VECTOR ( 'NONE', #98, 1000.000000000000000 ) ;
#481 = CARTESIAN_POINT ( 'NONE',  ( 4.464361886705021564E-16, 12.00000000000000000, -3.500000000000002220 ) ) ;
#482 = VERTEX_POINT ( 'NONE', #937 ) ;
#483 = EDGE_LOOP ( 'NONE', ( #680, #1132, #959, #878 ) ) ;
#484 = DIRECTION ( 'NONE',  ( 0.000000000000000000, 0.000000000000000000, 1.000000000000000000 ) ) ;
#485 = VERTEX_POINT ( 'NONE', #32 ) ;
#486 = CARTESIAN_POINT ( 'NONE',  ( -5.800000000000000711, 12.00000000000000000, 0.000000000000000000 ) ) ;
#487 = VERTEX_POINT ( 'NONE', #389 ) ;
#488 = ORIENTED_EDGE ( 'NONE', *, *, #110, .T. ) ;
#489 = DIRECTION ( 'NONE',  ( -1.000000000000000000, 0.000000000000000000, 0.000000000000000000 ) ) ;
#490 = VERTEX_POINT ( 'NONE', #13 ) ;
#491 = CIRCLE ( 'NONE', #650, 1.600000000000001865 ) ;
#492 = CARTESIAN_POINT ( 'NONE',  ( -17.00000000000001066, 12.00000000000000000, -3.500000000000004441 ) ) ;
#493 = VECTOR ( 'NONE', #1118, 1000.000000000000000 ) ;
#494 = PRODUCT_DEFINITION_FORMATION_WITH_SPECIFIED_SOURCE ( 'ANY', '', #620, .NOT_KNOWN. ) ;
#495 = VERTEX_POINT ( 'NONE', #758 ) ;
#496 = VERTEX_POINT ( 'NONE', #1124 ) ;
#497 = CLOSED_SHELL ( 'NONE', ( #1035, #458, #122, #100 ) ) ;
#498 =( NAMED_UNIT ( * ) SI_UNIT ( $, .STERADIAN. ) SOLID_ANGLE_UNIT ( ) );
#499 = ORIENTED_EDGE ( 'NONE', *, *, #14, .F. ) ;
#500 = VECTOR ( 'NONE', #899, 1000.000000000000000 ) ;
#501 = VECTOR ( 'NONE', #809, 1000.000000000000000 ) ;
#502 = CARTESIAN_POINT ( 'NONE',  ( -3.252606517456508865E-16, 12.00000000000000000, 1.499999999999996669 ) ) ;
#503 = ORIENTED_EDGE ( 'NONE', *, *, #226, .T. ) ;
#504 = ORIENTED_EDGE ( 'NONE', *, *, #882, .T. ) ;
#505 = EDGE_CURVE ( 'NONE', #38, #405, #300, .T. ) ;
#506 = CARTESIAN_POINT ( 'NONE',  ( 8.800000000000000711, 12.00000000000000000, 0.000000000000000000 ) ) ;
#507 = LINE ( 'NONE', #875, #538 ) ;
#508 = DIRECTION ( 'NONE',  ( 0.000000000000000000, 0.000000000000000000, 1.000000000000000000 ) ) ;
#509 = CARTESIAN_POINT ( 'NONE',  ( -5.800000000000000711, 12.00000000000000000, -1.500000000000000444 ) ) ;
#510 = ORIENTED_EDGE ( 'NONE', *, *, #753, .F. ) ;
#511 = ORIENTED_EDGE ( 'NONE', *, *, #141, .T. ) ;
#512 = EDGE_CURVE ( 'NONE', #216, #907, #808, .T. ) ;
#513 = CARTESIAN_POINT ( 'NONE',  ( 16.99999999999998579, 12.00000000000000000, 3.500000000000000000 ) ) ;
#514 = CARTESIAN_POINT ( 'NONE',  ( -4.000000000000000000, 0.000000000000000000, 1.499999999999999556 ) ) ;
#515 = CARTESIAN_POINT ( 'NONE',  ( -17.00000000000001776, 5.099999999999999645, 1.600000000000001865 ) ) ;
#516 = CARTESIAN_POINT ( 'NONE',  ( 16.99999999999998224, 5.099999999999999645, -1.600000000000001865 ) ) ;
#517 = APPLICATION_CONTEXT ( 'automotive_design' ) ;
#518 = CARTESIAN_POINT ( 'NONE',  ( -2.168404344971007389E-16, 0.000000000000000000, 1.499999999999999112 ) ) ;
#519 = SHAPE_DEFINITION_REPRESENTATION ( #270, #150 ) ;
#520 = VERTEX_POINT ( 'NONE', #777 ) ;
#521 = VERTEX_POINT ( 'NONE', #703 ) ;
#522 = DIRECTION ( 'NONE',  ( 1.000000000000000000, 0.000000000000000000, 2.891205793294679312E-16 ) ) ;
#523 = CARTESIAN_POINT ( 'NONE',  ( -4.000000000000000000, 12.00000000000000000, -1.500000000000000444 ) ) ;
#524 = DIRECTION ( 'NONE',  ( -1.000000000000000000, 0.000000000000000000, 0.000000000000000000 ) ) ;
#525 = CARTESIAN_POINT ( 'NONE',  ( 3.252606517456508865E-16, 12.00000000000000000, 1.499999999999996669 ) ) ;
#526 = LINE ( 'NONE', #350, #240 ) ;
#527 = CYLINDRICAL_SURFACE ( 'NONE', #560, 1.600000000000001865 ) ;
#528 = EDGE_LOOP ( 'NONE', ( #294, #873, #210, #769 ) ) ;
#529 = ORIENTED_EDGE ( 'NONE', *, *, #18, .F. ) ;
#530 = EDGE_CURVE ( 'NONE', #698, #520, #673, .T. ) ;
#531 = DIRECTION ( 'NONE',  ( 0.000000000000000000, 1.000000000000000000, 0.000000000000000000 ) ) ;
#532 = CARTESIAN_POINT ( 'NONE',  ( 16.99999999999998934, 0.000000000000000000, -3.500000000000000000 ) ) ;
#533 = EDGE_CURVE ( 'NONE', #490, #947, #1131, .T. ) ;
#534 = CARTESIAN_POINT ( 'NONE',  ( 1.000000000000000000, 12.00000000000000000, 1.499999999999999334 ) ) ;
#535 =( NAMED_UNIT ( * ) PLANE_ANGLE_UNIT ( ) SI_UNIT ( $, .RADIAN. ) );
#536 = EDGE_LOOP ( 'NONE', ( #403, #943, #327, #247 ) ) ;
#537 = CARTESIAN_POINT ( 'NONE',  ( 5.800000000000000711, 12.00000000000000000, 1.500000000000000000 ) ) ;
#538 = VECTOR ( 'NONE', #59, 1000.000000000000000 ) ;
#539 = PRODUCT_RELATED_PRODUCT_CATEGORY ( 'part', '', ( #620 ) ) ;
#540 = CYLINDRICAL_SURFACE ( 'NONE', #26, 1.600000000000001865 ) ;
#541 = FACE_OUTER_BOUND ( 'NONE', #433, .T. ) ;
#542 = CARTESIAN_POINT ( 'NONE',  ( -10.80000000000000071, 12.00000000000000000, 0.000000000000000000 ) ) ;
#543 = ORIENTED_EDGE ( 'NONE', *, *, #103, .F. ) ;
#544 = DIRECTION ( 'NONE',  ( 0.000000000000000000, 0.000000000000000000, 1.000000000000000000 ) ) ;
#545 = EDGE_LOOP ( 'NONE', ( #314, #338, #986, #328 ) ) ;
#546 = AXIS2_PLACEMENT_3D ( 'NONE', #161, #323, #153 ) ;
#547 = CARTESIAN_POINT ( 'NONE',  ( -17.00000000000001776, 0.5999999999999999778, 0.000000000000000000 ) ) ;
#548 = DIRECTION ( 'NONE',  ( 0.000000000000000000, 0.000000000000000000, -1.000000000000000000 ) ) ;
#549 = VECTOR ( 'NONE', #75, 1000.000000000000000 ) ;
#550 = VECTOR ( 'NONE', #860, 1000.000000000000000 ) ;
#551 = VECTOR ( 'NONE', #12, 1000.000000000000000 ) ;
#552 = ADVANCED_FACE ( 'NONE', ( #783 ), #1149, .T. ) ;
#553 = EDGE_CURVE ( 'NONE', #485, #213, #491, .T. ) ;
#554 = DIRECTION ( 'NONE',  ( 1.000000000000000000, 0.000000000000000000, -2.168404344971010594E-16 ) ) ;
#555 = CARTESIAN_POINT ( 'NONE',  ( 16.99999999999998224, 5.099999999999999645, 0.000000000000000000 ) ) ;
#556 = PLANE ( 'NONE',  #962 ) ;
#557 = FACE_BOUND ( 'NONE', #56, .T. ) ;
#558 = EDGE_CURVE ( 'NONE', #137, #487, #313, .T. ) ;
#559 = ORIENTED_EDGE ( 'NONE', *, *, #223, .T. ) ;
#560 = AXIS2_PLACEMENT_3D ( 'NONE', #1073, #168, #976 ) ;
#561 = CARTESIAN_POINT ( 'NONE',  ( 10.80000000000000071, 12.00000000000000000, 0.000000000000000000 ) ) ;
#562 = CARTESIAN_POINT ( 'NONE',  ( -17.00000000000001776, 12.00000000000000000, 0.000000000000000000 ) ) ;
#563 = EDGE_CURVE ( 'NONE', #947, #298, #1053, .T. ) ;
#564 = DIRECTION ( 'NONE',  ( 0.000000000000000000, 0.000000000000000000, 1.000000000000000000 ) ) ;
#565 = EDGE_CURVE ( 'NONE', #353, #362, #966, .T. ) ;
#566 = PLANE ( 'NONE',  #859 ) ;
#567 = CARTESIAN_POINT ( 'NONE',  ( 8.800000000000000711, 12.00000000000000000, -1.499999999999999556 ) ) ;
#568 = CYLINDRICAL_SURFACE ( 'NONE', #711, 1.600000000000001865 ) ;
#569 = VERTEX_POINT ( 'NONE', #1142 ) ;
#570 = PRESENTATION_STYLE_ASSIGNMENT (( #212 ) ) ;
#571 = ORIENTED_EDGE ( 'NONE', *, *, #4, .T. ) ;
#572 = DIRECTION ( 'NONE',  ( -1.000000000000000000, 0.000000000000000000, -1.445602896647339163E-16 ) ) ;
#573 = EDGE_LOOP ( 'NONE', ( #688, #133, #795, #257 ) ) ;
#574 = DIRECTION ( 'NONE',  ( -7.228014483236695816E-17, 0.000000000000000000, 1.000000000000000000 ) ) ;
#575 = ORIENTED_EDGE ( 'NONE', *, *, #357, .T. ) ;
#576 = EDGE_CURVE ( 'NONE', #400, #362, #258, .T. ) ;
#577 = VECTOR ( 'NONE', #1179, 1000.000000000000000 ) ;
#578 = EDGE_CURVE ( 'NONE', #723, #714, #579, .T. ) ;
#579 = LINE ( 'NONE', #677, #746 ) ;
#580 = EDGE_LOOP ( 'NONE', ( #662, #299, #139, #586 ) ) ;
#581 = ORIENTED_EDGE ( 'NONE', *, *, #530, .F. ) ;
#582 = CARTESIAN_POINT ( 'NONE',  ( -1.000000000000000000, 12.00000000000000000, -1.500000000000000666 ) ) ;
#583 = ORIENTED_EDGE ( 'NONE', *, *, #563, .T. ) ;
#584 = DIRECTION ( 'NONE',  ( 0.000000000000000000, -1.000000000000000000, 0.000000000000000000 ) ) ;
#585 = AXIS2_PLACEMENT_3D ( 'NONE', #341, #605, #799 ) ;
#586 = ORIENTED_EDGE ( 'NONE', *, *, #911, .T. ) ;
#587 = ORIENTED_EDGE ( 'NONE', *, *, #838, .F. ) ;
#588 = FACE_OUTER_BOUND ( 'NONE', #633, .T. ) ;
#589 = ORIENTED_EDGE ( 'NONE', *, *, #558, .F. ) ;
#590 = CARTESIAN_POINT ( 'NONE',  ( 13.79999999999999716, 12.00000000000000000, 7.979727989493311057E-15 ) ) ;
#591 = EDGE_CURVE ( 'NONE', #391, #495, #67, .T. ) ;
#592 = AXIS2_PLACEMENT_3D ( 'NONE', #1068, #708, #780 ) ;
#593 = EDGE_LOOP ( 'NONE', ( #1121, #118 ) ) ;
#594 = VERTEX_POINT ( 'NONE', #128 ) ;
#595 = FACE_BOUND ( 'NONE', #545, .T. ) ;
#596 = CARTESIAN_POINT ( 'NONE',  ( -10.80000000000000071, 12.00000000000000000, 1.499999999999999112 ) ) ;
#597 = CIRCLE ( 'NONE', #382, 3.500000000000000000 ) ;
#598 = DIRECTION ( 'NONE',  ( 0.000000000000000000, -1.000000000000000000, 0.000000000000000000 ) ) ;
#599 = VECTOR ( 'NONE', #927, 1000.000000000000000 ) ;
#600 = CARTESIAN_POINT ( 'NONE',  ( 16.99999999999998224, 5.099999999999999645, 1.600000000000001865 ) ) ;
#601 = EDGE_CURVE ( 'NONE', #938, #837, #235, .T. ) ;
#602 = VERTEX_POINT ( 'NONE', #516 ) ;
#603 = VERTEX_POINT ( 'NONE', #492 ) ;
#604 = FACE_BOUND ( 'NONE', #716, .T. ) ;
#605 = DIRECTION ( 'NONE',  ( 0.000000000000000000, 1.000000000000000000, -0.000000000000000000 ) ) ;
#606 = PLANE ( 'NONE',  #983 ) ;
#607 = LINE ( 'NONE', #87, #500 ) ;
#608 = PLANE ( 'NONE',  #44 ) ;
#609 = ORIENTED_EDGE ( 'NONE', *, *, #578, .T. ) ;
#610 = ORIENTED_EDGE ( 'NONE', *, *, #18, .T. ) ;
#611 = LINE ( 'NONE', #787, #446 ) ;
#612 = CARTESIAN_POINT ( 'NONE',  ( -8.800000000000000711, 12.00000000000000000, 0.000000000000000000 ) ) ;
#613 = CARTESIAN_POINT ( 'NONE',  ( 1.000000000000000000, 12.00000000000000000, 1.499999999999999334 ) ) ;
#614 = CARTESIAN_POINT ( 'NONE',  ( -17.00000000000001776, 5.099999999999999645, 0.000000000000000000 ) ) ;
#615 = VECTOR ( 'NONE', #1071, 1000.000000000000000 ) ;
#616 = CARTESIAN_POINT ( 'NONE',  ( -1.000000000000000000, 12.00000000000000000, 1.499999999999999334 ) ) ;
#617 = EDGE_CURVE ( 'NONE', #169, #9, #227, .T. ) ;
#618 = ORIENTED_EDGE ( 'NONE', *, *, #751, .T. ) ;
#619 = ORIENTED_EDGE ( 'NONE', *, *, #591, .T. ) ;
#620 = PRODUCT ( 'pogo - pin', 'pogo - pin', '', ( #1150 ) ) ;
#621 = DIRECTION ( 'NONE',  ( -1.000000000000000000, 0.000000000000000000, 0.000000000000000000 ) ) ;
#622 = DIRECTION ( 'NONE',  ( 0.000000000000000000, 0.000000000000000000, -1.000000000000000000 ) ) ;
#623 = DIRECTION ( 'NONE',  ( 0.000000000000000000, 0.000000000000000000, 1.000000000000000000 ) ) ;
#624 = LINE ( 'NONE', #1072, #145 ) ;
#625 = FACE_OUTER_BOUND ( 'NONE', #936, .T. ) ;
#626 = ORIENTED_EDGE ( 'NONE', *, *, #505, .T. ) ;
#627 = FACE_BOUND ( 'NONE', #465, .T. ) ;
#628 = CARTESIAN_POINT ( 'NONE',  ( 4.000000000000000000, 12.00000000000000000, 1.499999999999999556 ) ) ;
#629 = CARTESIAN_POINT ( 'NONE',  ( -1.084202172485504927E-16, 12.00000000000000000, -1.500000000000000666 ) ) ;
#630 = ORIENTED_EDGE ( 'NONE', *, *, #163, .T. ) ;
#631 = LINE ( 'NONE', #640, #480 ) ;
#632 = VECTOR ( 'NONE', #343, 1000.000000000000000 ) ;
#633 = EDGE_LOOP ( 'NONE', ( #941, #679, #302, #1074 ) ) ;
#634 = DIRECTION ( 'NONE',  ( -5.782411586589356653E-16, 0.000000000000000000, -1.000000000000000000 ) ) ;
#635 = DIRECTION ( 'NONE',  ( 0.000000000000000000, 1.000000000000000000, 0.000000000000000000 ) ) ;
#636 = EDGE_CURVE ( 'NONE', #947, #569, #885, .T. ) ;
#637 = ADVANCED_FACE ( 'NONE', ( #942 ), #415, .F. ) ;
#638 = EDGE_CURVE ( 'NONE', #967, #723, #597, .T. ) ;
#639 = CARTESIAN_POINT ( 'NONE',  ( -5.800000000000000711, 12.00000000000000000, -1.500000000000000444 ) ) ;
#640 = CARTESIAN_POINT ( 'NONE',  ( 5.800000000000000711, 12.00000000000000000, -1.500000000000000444 ) ) ;
#641 = EDGE_CURVE ( 'NONE', #62, #951, #696, .T. ) ;
#642 = AXIS2_PLACEMENT_3D ( 'NONE', #2, #181, #176 ) ;
#643 = DIRECTION ( 'NONE',  ( 0.000000000000000000, 0.000000000000000000, -1.000000000000000000 ) ) ;
#644 = EDGE_CURVE ( 'NONE', #221, #1067, #395, .T. ) ;
#645 = CARTESIAN_POINT ( 'NONE',  ( 4.336808689942031048E-16, 12.00000000000000000, -1.500000000000004219 ) ) ;
#646 = AXIS2_PLACEMENT_3D ( 'NONE', #801, #1080, #448 ) ;
#647 = PLANE ( 'NONE',  #1181 ) ;
#648 = CARTESIAN_POINT ( 'NONE',  ( 5.800000000000000711, 12.00000000000000000, -1.500000000000000444 ) ) ;
#649 = EDGE_CURVE ( 'NONE', #1160, #569, #607, .T. ) ;
#650 = AXIS2_PLACEMENT_3D ( 'NONE', #1157, #1040, #975 ) ;
#651 = ADVANCED_FACE ( 'NONE', ( #261 ), #342, .F. ) ;
#652 = AXIS2_PLACEMENT_3D ( 'NONE', #428, #621, #690 ) ;
#653 = CARTESIAN_POINT ( 'NONE',  ( -8.800000000000000711, 0.000000000000000000, -1.499999999999999556 ) ) ;
#654 = CARTESIAN_POINT ( 'NONE',  ( -2.168404344971007389E-16, 12.00000000000000000, 1.499999999999999112 ) ) ;
#655 = AXIS2_PLACEMENT_3D ( 'NONE', #893, #83, #623 ) ;
#656 = AXIS2_PLACEMENT_3D ( 'NONE', #105, #372, #1013 ) ;
#657 = CARTESIAN_POINT ( 'NONE',  ( -13.79999999999999716, 12.00000000000000000, 1.499999999999999778 ) ) ;
#658 = CARTESIAN_POINT ( 'NONE',  ( 4.464361886705021564E-16, 12.00000000000000000, 3.500000000000002220 ) ) ;
#659 = EDGE_LOOP ( 'NONE', ( #1134, #424, #779, #1041 ) ) ;
#660 = EDGE_LOOP ( 'NONE', ( #669, #402, #388, #952 ) ) ;
#661 = DIRECTION ( 'NONE',  ( -1.000000000000000000, 0.000000000000000000, 0.000000000000000000 ) ) ;
#662 = ORIENTED_EDGE ( 'NONE', *, *, #1100, .T. ) ;
#663 = EDGE_CURVE ( 'NONE', #263, #24, #447, .T. ) ;
#664 = EDGE_CURVE ( 'NONE', #62, #938, #807, .T. ) ;
#665 = DIRECTION ( 'NONE',  ( 1.000000000000000000, 0.000000000000000000, 7.228014483236695816E-17 ) ) ;
#666 = VERTEX_POINT ( 'NONE', #990 ) ;
#667 = CARTESIAN_POINT ( 'NONE',  ( 1.084202172485503941E-16, 0.000000000000000000, 1.499999999999999334 ) ) ;
#668 = ORIENTED_EDGE ( 'NONE', *, *, #996, .F. ) ;
#669 = ORIENTED_EDGE ( 'NONE', *, *, #929, .F. ) ;
#670 = CARTESIAN_POINT ( 'NONE',  ( -17.00000000000001776, 5.099999999999999645, 1.600000000000001865 ) ) ;
#671 = ORIENTED_EDGE ( 'NONE', *, *, #828, .F. ) ;
#672 = APPLICATION_CONTEXT ( 'automotive_design' ) ;
#673 = LINE ( 'NONE', #791, #1015 ) ;
#674 = EDGE_LOOP ( 'NONE', ( #442, #1136, #80, #872 ) ) ;
#675 = VERTEX_POINT ( 'NONE', #904 ) ;
#676 = CARTESIAN_POINT ( 'NONE',  ( -8.800000000000000711, 12.00000000000000000, -1.499999999999999556 ) ) ;
#677 = CARTESIAN_POINT ( 'NONE',  ( 16.99999999999998934, 12.00000000000000000, -3.500000000000000000 ) ) ;
#678 = VECTOR ( 'NONE', #1062, 1000.000000000000000 ) ;
#679 = ORIENTED_EDGE ( 'NONE', *, *, #331, .F. ) ;
#680 = ORIENTED_EDGE ( 'NONE', *, *, #414, .F. ) ;
#681 = DIRECTION ( 'NONE',  ( -0.000000000000000000, -1.000000000000000000, -0.000000000000000000 ) ) ;
#682 = LINE ( 'NONE', #709, #17 ) ;
#683 = EDGE_CURVE ( 'NONE', #951, #594, #253, .T. ) ;
#684 = UNCERTAINTY_MEASURE_WITH_UNIT (LENGTH_MEASURE( 1.000000000000000082E-05 ), #1159, 'distance_accuracy_value', 'NONE');
#685 = FACE_OUTER_BOUND ( 'NONE', #998, .T. ) ;
#686 = DIRECTION ( 'NONE',  ( 0.000000000000000000, 0.000000000000000000, 1.000000000000000000 ) ) ;
#687 = VECTOR ( 'NONE', #340, 1000.000000000000000 ) ;
#688 = ORIENTED_EDGE ( 'NONE', *, *, #565, .F. ) ;
#689 = ORIENTED_EDGE ( 'NONE', *, *, #249, .F. ) ;
#690 = DIRECTION ( 'NONE',  ( 0.000000000000000000, 0.000000000000000000, 1.000000000000000000 ) ) ;
#691 = CARTESIAN_POINT ( 'NONE',  ( 4.336808689942023652E-16, 0.000000000000000000, -1.500000000000002220 ) ) ;
#692 = AXIS2_PLACEMENT_3D ( 'NONE', #800, #1165, #908 ) ;
#693 = AXIS2_PLACEMENT_3D ( 'NONE', #645, #1012, #191 ) ;
#694 = CARTESIAN_POINT ( 'NONE',  ( -4.336808689942023652E-16, 12.00000000000000000, -1.500000000000002220 ) ) ;
#695 = AXIS2_PLACEMENT_3D ( 'NONE', #743, #1004, #554 ) ;
#696 = LINE ( 'NONE', #406, #1180 ) ;
#697 = CARTESIAN_POINT ( 'NONE',  ( -5.800000000000000711, 12.00000000000000000, 0.000000000000000000 ) ) ;
#698 = VERTEX_POINT ( 'NONE', #628 ) ;
#699 = ORIENTED_EDGE ( 'NONE', *, *, #1010, .F. ) ;
#700 = CARTESIAN_POINT ( 'NONE',  ( 8.800000000000000711, 0.000000000000000000, -1.499999999999999556 ) ) ;
#701 = PLANE ( 'NONE',  #282 ) ;
#702 = DIRECTION ( 'NONE',  ( -1.000000000000000000, 0.000000000000000000, 1.275531967630005245E-16 ) ) ;
#703 = CARTESIAN_POINT ( 'NONE',  ( 16.99999999999998579, 0.000000000000000000, 3.500000000000000000 ) ) ;
#704 = DIRECTION ( 'NONE',  ( -0.000000000000000000, -1.000000000000000000, -0.000000000000000000 ) ) ;
#705 = PLANE ( 'NONE',  #1174 ) ;
#706 = VERTEX_POINT ( 'NONE', #172 ) ;
#707 = ORIENTED_EDGE ( 'NONE', *, *, #945, .F. ) ;
#708 = DIRECTION ( 'NONE',  ( 0.000000000000000000, 1.000000000000000000, -0.000000000000000000 ) ) ;
#709 = CARTESIAN_POINT ( 'NONE',  ( 1.000000000000000000, 12.00000000000000000, 0.000000000000000000 ) ) ;
#710 = LINE ( 'NONE', #995, #1003 ) ;
#711 = AXIS2_PLACEMENT_3D ( 'NONE', #851, #378, #932 ) ;
#712 = LINE ( 'NONE', #518, #632 ) ;
#713 = EDGE_CURVE ( 'NONE', #62, #1042, #710, .T. ) ;
#714 = VERTEX_POINT ( 'NONE', #532 ) ;
#715 = PLANE ( 'NONE',  #789 ) ;
#716 = EDGE_LOOP ( 'NONE', ( #626, #575, #219, #803 ) ) ;
#717 = AXIS2_PLACEMENT_3D ( 'NONE', #158, #359, #784 ) ;
#718 = CARTESIAN_POINT ( 'NONE',  ( -10.80000000000000071, 12.00000000000000000, -1.500000000000001110 ) ) ;
#719 = CARTESIAN_POINT ( 'NONE',  ( 4.000000000000000000, 12.00000000000000000, 0.000000000000000000 ) ) ;
#720 = FACE_OUTER_BOUND ( 'NONE', #246, .T. ) ;
#721 = EDGE_LOOP ( 'NONE', ( #271, #1126, #820, #237 ) ) ;
#722 = DIRECTION ( 'NONE',  ( -1.000000000000000000, 0.000000000000000000, 2.168404344971010594E-16 ) ) ;
#723 = VERTEX_POINT ( 'NONE', #1087 ) ;
#724 = ADVANCED_FACE ( 'NONE', ( #178 ), #540, .F. ) ;
#725 = DIRECTION ( 'NONE',  ( -0.000000000000000000, -1.000000000000000000, -0.000000000000000000 ) ) ;
#726 = APPLICATION_PROTOCOL_DEFINITION ( 'draft international standard', 'automotive_design', 1998, #517 ) ;
#727 = EDGE_LOOP ( 'NONE', ( #21, #589, #1133, #143 ) ) ;
#728 = FACE_OUTER_BOUND ( 'NONE', #1027, .T. ) ;
#729 = DIRECTION ( 'NONE',  ( -1.000000000000000000, 0.000000000000000000, 2.891205793294679312E-16 ) ) ;
#730 = FACE_OUTER_BOUND ( 'NONE', #152, .T. ) ;
#731 = ORIENTED_EDGE ( 'NONE', *, *, #512, .T. ) ;
#732 = DIRECTION ( 'NONE',  ( -1.000000000000000000, 0.000000000000000000, -1.275531967630005245E-16 ) ) ;
#733 = FACE_BOUND ( 'NONE', #483, .T. ) ;
#734 = CIRCLE ( 'NONE', #215, 1.600000000000001865 ) ;
#735 = ADVANCED_FACE ( 'NONE', ( #1079 ), #166, .F. ) ;
#736 = CARTESIAN_POINT ( 'NONE',  ( 8.800000000000000711, 0.000000000000000000, 1.500000000000000444 ) ) ;
#737 = DIRECTION ( 'NONE',  ( 0.000000000000000000, 0.000000000000000000, 1.000000000000000000 ) ) ;
#738 = ADVANCED_FACE ( 'NONE', ( #728 ), #92, .T. ) ;
#739 = AXIS2_PLACEMENT_3D ( 'NONE', #997, #900, #89 ) ;
#740 = DIRECTION ( 'NONE',  ( -7.228014483236695816E-17, 0.000000000000000000, -1.000000000000000000 ) ) ;
#741 = PLANE ( 'NONE',  #462 ) ;
#742 = VECTOR ( 'NONE', #335, 1000.000000000000000 ) ;
#743 = CARTESIAN_POINT ( 'NONE',  ( 3.252606517456508865E-16, 12.00000000000000000, 1.499999999999996669 ) ) ;
#744 = CARTESIAN_POINT ( 'NONE',  ( 5.800000000000000711, 12.00000000000000000, 0.000000000000000000 ) ) ;
#745 = EDGE_LOOP ( 'NONE', ( #322, #229, #857, #31 ) ) ;
#746 = VECTOR ( 'NONE', #950, 1000.000000000000000 ) ;
#747 = VECTOR ( 'NONE', #138, 1000.000000000000000 ) ;
#748 = VECTOR ( 'NONE', #68, 1000.000000000000000 ) ;
#749 = FILL_AREA_STYLE_COLOUR ( '', #914 ) ;
#750 = EDGE_LOOP ( 'NONE', ( #417, #559, #204, #91 ) ) ;
#751 = EDGE_CURVE ( 'NONE', #951, #169, #452, .T. ) ;
#752 = DIRECTION ( 'NONE',  ( -1.275531967630005245E-16, 0.000000000000000000, 1.000000000000000000 ) ) ;
#753 = EDGE_CURVE ( 'NONE', #569, #889, #1098, .T. ) ;
#754 = EDGE_CURVE ( 'NONE', #1042, #837, #993, .T. ) ;
#755 = EDGE_LOOP ( 'NONE', ( #425, #956, #630, #1075 ) ) ;
#756 = DIRECTION ( 'NONE',  ( 0.000000000000000000, -1.000000000000000000, 0.000000000000000000 ) ) ;
#757 = ORIENTED_EDGE ( 'NONE', *, *, #1111, .T. ) ;
#758 = CARTESIAN_POINT ( 'NONE',  ( 1.000000000000000000, 0.000000000000000000, -1.500000000000000666 ) ) ;
#759 = ORIENTED_EDGE ( 'NONE', *, *, #182, .F. ) ;
#760 = VERTEX_POINT ( 'NONE', #1002 ) ;
#761 = VECTOR ( 'NONE', #584, 1000.000000000000000 ) ;
#762 = DIRECTION ( 'NONE',  ( 0.000000000000000000, 0.000000000000000000, -1.000000000000000000 ) ) ;
#763 = ORIENTED_EDGE ( 'NONE', *, *, #828, .T. ) ;
#764 = VECTOR ( 'NONE', #255, 1000.000000000000000 ) ;
#765 = CARTESIAN_POINT ( 'NONE',  ( -1.000000000000000000, 12.00000000000000000, 0.000000000000000000 ) ) ;
#766 = ORIENTED_EDGE ( 'NONE', *, *, #929, .T. ) ;
#767 = EDGE_LOOP ( 'NONE', ( #416, #1036, #479, #1047 ) ) ;
#768 =( LENGTH_UNIT ( ) NAMED_UNIT ( * ) SI_UNIT ( .MILLI., .METRE. ) );
#769 = ORIENTED_EDGE ( 'NONE', *, *, #683, .T. ) ;
#770 = DIRECTION ( 'NONE',  ( 0.000000000000000000, 1.000000000000000000, -0.000000000000000000 ) ) ;
#771 = ADVANCED_FACE ( 'NONE', ( #8, #184, #557, #364, #916, #627, #733 ), #715, .T. ) ;
#772 = ORIENTED_EDGE ( 'NONE', *, *, #996, .T. ) ;
#773 = ORIENTED_EDGE ( 'NONE', *, *, #994, .F. ) ;
#774 = ADVANCED_FACE ( 'NONE', ( #730 ), #277, .T. ) ;
#775 = FACE_BOUND ( 'NONE', #130, .T. ) ;
#776 = EDGE_LOOP ( 'NONE', ( #844, #46, #987, #786 ) ) ;
#777 = CARTESIAN_POINT ( 'NONE',  ( 4.000000000000000000, 0.000000000000000000, 1.499999999999999556 ) ) ;
#778 = ORIENTED_EDGE ( 'NONE', *, *, #71, .F. ) ;
#779 = ORIENTED_EDGE ( 'NONE', *, *, #636, .T. ) ;
#780 = DIRECTION ( 'NONE',  ( 0.000000000000000000, 0.000000000000000000, 1.000000000000000000 ) ) ;
#781 = LINE ( 'NONE', #691, #317 ) ;
#782 = CARTESIAN_POINT ( 'NONE',  ( -1.000000000000000000, 12.00000000000000000, -1.500000000000000666 ) ) ;
#783 = FACE_OUTER_BOUND ( 'NONE', #435, .T. ) ;
#784 = DIRECTION ( 'NONE',  ( 1.000000000000000000, 0.000000000000000000, 0.000000000000000000 ) ) ;
#785 = VERTEX_POINT ( 'NONE', #361 ) ;
#786 = ORIENTED_EDGE ( 'NONE', *, *, #1100, .F. ) ;
#787 = CARTESIAN_POINT ( 'NONE',  ( 4.336808689942031048E-16, 0.000000000000000000, -1.500000000000004219 ) ) ;
#788 = LINE ( 'NONE', #81, #806 ) ;
#789 = AXIS2_PLACEMENT_3D ( 'NONE', #1168, #269, #902 ) ;
#790 = CARTESIAN_POINT ( 'NONE',  ( 4.464361886705021564E-16, 0.000000000000000000, 3.500000000000002220 ) ) ;
#791 = CARTESIAN_POINT ( 'NONE',  ( 4.000000000000000000, 12.00000000000000000, 1.499999999999999556 ) ) ;
#792 = CARTESIAN_POINT ( 'NONE',  ( 5.800000000000000711, 0.000000000000000000, 0.000000000000000000 ) ) ;
#793 = LINE ( 'NONE', #77, #764 ) ;
#794 = ORIENTED_EDGE ( 'NONE', *, *, #265, .F. ) ;
#795 = ORIENTED_EDGE ( 'NONE', *, *, #815, .T. ) ;
#796 = EDGE_CURVE ( 'NONE', #85, #888, #346, .T. ) ;
#797 = EDGE_CURVE ( 'NONE', #475, #482, #631, .T. ) ;
#798 = LINE ( 'NONE', #1162, #687 ) ;
#799 = DIRECTION ( 'NONE',  ( 0.000000000000000000, 0.000000000000000000, 1.000000000000000000 ) ) ;
#800 = CARTESIAN_POINT ( 'NONE',  ( 1.000000000000000000, 12.00000000000000000, 0.000000000000000000 ) ) ;
#801 = CARTESIAN_POINT ( 'NONE',  ( 16.99999999999998224, 5.099999999999999645, 0.000000000000000000 ) ) ;
#802 = DIRECTION ( 'NONE',  ( -0.000000000000000000, -1.000000000000000000, -0.000000000000000000 ) ) ;
#803 = ORIENTED_EDGE ( 'NONE', *, *, #848, .F. ) ;
#804 = DIRECTION ( 'NONE',  ( -0.000000000000000000, -1.000000000000000000, -0.000000000000000000 ) ) ;
#805 = ORIENTED_EDGE ( 'NONE', *, *, #576, .T. ) ;
#806 = VECTOR ( 'NONE', #410, 1000.000000000000000 ) ;
#807 = LINE ( 'NONE', #525, #453 ) ;
#808 = CIRCLE ( 'NONE', #1125, 3.500000000000004441 ) ;
#809 = DIRECTION ( 'NONE',  ( 0.000000000000000000, 0.000000000000000000, -1.000000000000000000 ) ) ;
#810 = FACE_OUTER_BOUND ( 'NONE', #660, .T. ) ;
#811 = ORIENTED_EDGE ( 'NONE', *, *, #882, .F. ) ;
#812 = CARTESIAN_POINT ( 'NONE',  ( 1.084202172485504927E-16, 12.00000000000000000, -1.500000000000000666 ) ) ;
#813 = AXIS2_PLACEMENT_3D ( 'NONE', #243, #524, #508 ) ;
#814 = VECTOR ( 'NONE', #441, 1000.000000000000000 ) ;
#815 = EDGE_CURVE ( 'NONE', #602, #400, #443, .T. ) ;
#816 = VECTOR ( 'NONE', #804, 1000.000000000000000 ) ;
#817 = LINE ( 'NONE', #1182, #291 ) ;
#818 = LINE ( 'NONE', #697, #1017 ) ;
#819 = AXIS2_PLACEMENT_3D ( 'NONE', #1011, #740, #1107 ) ;
#820 = ORIENTED_EDGE ( 'NONE', *, *, #393, .T. ) ;
#821 = CARTESIAN_POINT ( 'NONE',  ( 3.252606517456508865E-16, 0.000000000000000000, 1.499999999999996669 ) ) ;
#822 = EDGE_CURVE ( 'NONE', #390, #924, #824, .T. ) ;
#823 = LINE ( 'NONE', #363, #96 ) ;
#824 = LINE ( 'NONE', #812, #577 ) ;
#825 = ORIENTED_EDGE ( 'NONE', *, *, #1140, .T. ) ;
#826 = LINE ( 'NONE', #279, #187 ) ;
#827 = DIRECTION ( 'NONE',  ( 2.891205793294678326E-16, 0.000000000000000000, -1.000000000000000000 ) ) ;
#828 = EDGE_CURVE ( 'NONE', #706, #309, #1103, .T. ) ;
#829 = CARTESIAN_POINT ( 'NONE',  ( -1.000000000000000000, 0.000000000000000000, -0.000000000000000000 ) ) ;
#830 = CARTESIAN_POINT ( 'NONE',  ( -17.00000000000001776, 0.000000000000000000, 0.000000000000000000 ) ) ;
#831 = EDGE_LOOP ( 'NONE', ( #759, #170, #379, #763 ) ) ;
#832 = DIRECTION ( 'NONE',  ( 1.000000000000000000, 0.000000000000000000, -1.275531967630005245E-16 ) ) ;
#833 = FACE_OUTER_BOUND ( 'NONE', #901, .T. ) ;
#834 = VECTOR ( 'NONE', #84, 1000.000000000000000 ) ;
#835 = DIRECTION ( 'NONE',  ( -7.228014483236695816E-17, 0.000000000000000000, -1.000000000000000000 ) ) ;
#836 = DIRECTION ( 'NONE',  ( 1.000000000000000000, 0.000000000000000000, 1.275531967630005245E-16 ) ) ;
#837 = VERTEX_POINT ( 'NONE', #189 ) ;
#838 = EDGE_CURVE ( 'NONE', #353, #602, #330, .T. ) ;
#839 = LINE ( 'NONE', #23, #493 ) ;
#840 = ORIENTED_EDGE ( 'NONE', *, *, #1176, .F. ) ;
#841 = ADVANCED_FACE ( 'NONE', ( #1091 ), #918, .F. ) ;
#842 = ADVANCED_FACE ( 'NONE', ( #11 ), #999, .F. ) ;
#843 = CARTESIAN_POINT ( 'NONE',  ( -13.79999999999999716, 0.000000000000000000, 7.979727989493311057E-15 ) ) ;
#844 = ORIENTED_EDGE ( 'NONE', *, *, #971, .T. ) ;
#845 = AXIS2_PLACEMENT_3D ( 'NONE', #264, #367, #548 ) ;
#846 = VECTOR ( 'NONE', #1007, 1000.000000000000000 ) ;
#847 = VECTOR ( 'NONE', #374, 1000.000000000000000 ) ;
#848 = EDGE_CURVE ( 'NONE', #38, #263, #79, .T. ) ;
#849 = FACE_OUTER_BOUND ( 'NONE', #345, .T. ) ;
#850 = EDGE_LOOP ( 'NONE', ( #1144, #977, #858, #772 ) ) ;
#851 = CARTESIAN_POINT ( 'NONE',  ( 16.99999999999998224, 5.099999999999999645, 0.000000000000000000 ) ) ;
#852 = VERTEX_POINT ( 'NONE', #304 ) ;
#853 = ORIENTED_EDGE ( 'NONE', *, *, #578, .F. ) ;
#854 = CARTESIAN_POINT ( 'NONE',  ( 5.800000000000000711, 0.000000000000000000, 1.500000000000000000 ) ) ;
#855 = EDGE_LOOP ( 'NONE', ( #1139, #766, #129, #42 ) ) ;
#856 = DIRECTION ( 'NONE',  ( -0.000000000000000000, -1.000000000000000000, -0.000000000000000000 ) ) ;
#857 = ORIENTED_EDGE ( 'NONE', *, *, #664, .F. ) ;
#858 = ORIENTED_EDGE ( 'NONE', *, *, #468, .T. ) ;
#859 = AXIS2_PLACEMENT_3D ( 'NONE', #654, #1030, #572 ) ;
#860 = DIRECTION ( 'NONE',  ( 0.000000000000000000, 0.000000000000000000, -1.000000000000000000 ) ) ;
#861 = ORIENTED_EDGE ( 'NONE', *, *, #375, .F. ) ;
#862 = EDGE_CURVE ( 'NONE', #1066, #213, #1129, .T. ) ;
#863 = CLOSED_SHELL ( 'NONE', ( #724, #1128, #637, #57 ) ) ;
#864 = DIRECTION ( 'NONE',  ( -0.000000000000000000, -1.000000000000000000, -0.000000000000000000 ) ) ;
#865 = ADVANCED_FACE ( 'NONE', ( #588 ), #1038, .F. ) ;
#866 = ORIENTED_EDGE ( 'NONE', *, *, #994, .T. ) ;
#867 = ORIENTED_EDGE ( 'NONE', *, *, #1026, .T. ) ;
#868 = CARTESIAN_POINT ( 'NONE',  ( 1.000000000000000000, 12.00000000000000000, -1.500000000000000666 ) ) ;
#869 = EDGE_LOOP ( 'NONE', ( #1090, #668, #944, #504 ) ) ;
#870 = ADVANCED_FACE ( 'NONE', ( #849 ), #132, .F. ) ;
#871 = DIRECTION ( 'NONE',  ( 0.000000000000000000, 1.000000000000000000, -0.000000000000000000 ) ) ;
#872 = ORIENTED_EDGE ( 'NONE', *, *, #1086, .T. ) ;
#873 = ORIENTED_EDGE ( 'NONE', *, *, #713, .F. ) ;
#874 = DIRECTION ( 'NONE',  ( 0.000000000000000000, 0.000000000000000000, -1.000000000000000000 ) ) ;
#875 = CARTESIAN_POINT ( 'NONE',  ( 4.336808689942023652E-16, 12.00000000000000000, -1.500000000000002220 ) ) ;
#876 = DIRECTION ( 'NONE',  ( 0.000000000000000000, 0.000000000000000000, -1.000000000000000000 ) ) ;
#877 = DIRECTION ( 'NONE',  ( 0.000000000000000000, 0.000000000000000000, -1.000000000000000000 ) ) ;
#878 = ORIENTED_EDGE ( 'NONE', *, *, #93, .F. ) ;
#879 = EDGE_LOOP ( 'NONE', ( #308, #699, #529, #217 ) ) ;
#880 = DIRECTION ( 'NONE',  ( 0.000000000000000000, 0.000000000000000000, 1.000000000000000000 ) ) ;
#881 = LINE ( 'NONE', #171, #114 ) ;
#882 = EDGE_CURVE ( 'NONE', #1067, #24, #387, .T. ) ;
#883 = CARTESIAN_POINT ( 'NONE',  ( 4.464361886705021564E-16, 0.000000000000000000, -3.500000000000002220 ) ) ;
#884 = EDGE_CURVE ( 'NONE', #1066, #760, #734, .T. ) ;
#885 = LINE ( 'NONE', #590, #290 ) ;
#886 = LINE ( 'NONE', #431, #748 ) ;
#887 = DIRECTION ( 'NONE',  ( 1.000000000000000000, 0.000000000000000000, -2.891205793294678819E-16 ) ) ;
#888 = VERTEX_POINT ( 'NONE', #854 ) ;
#889 = VERTEX_POINT ( 'NONE', #1028 ) ;
#890 = FACE_OUTER_BOUND ( 'NONE', #869, .T. ) ;
#891 = LINE ( 'NONE', #612, #1000 ) ;
#892 = DIRECTION ( 'NONE',  ( 2.891205793294678326E-16, -0.000000000000000000, 1.000000000000000000 ) ) ;
#893 = CARTESIAN_POINT ( 'NONE',  ( -8.800000000000000711, 12.00000000000000000, 0.000000000000000000 ) ) ;
#894 = DIRECTION ( 'NONE',  ( 0.000000000000000000, 0.000000000000000000, -1.000000000000000000 ) ) ;
#895 = LINE ( 'NONE', #1183, #288 ) ;
#896 = ORIENTED_EDGE ( 'NONE', *, *, #205, .F. ) ;
#897 = ORIENTED_EDGE ( 'NONE', *, *, #533, .F. ) ;
#898 = DIRECTION ( 'NONE',  ( 0.000000000000000000, 0.000000000000000000, -1.000000000000000000 ) ) ;
#899 = DIRECTION ( 'NONE',  ( 1.000000000000000000, 0.000000000000000000, 2.891205793294679312E-16 ) ) ;
#900 = DIRECTION ( 'NONE',  ( 0.000000000000000000, 1.000000000000000000, 0.000000000000000000 ) ) ;
#901 = EDGE_LOOP ( 'NONE', ( #303, #840, #794, #609 ) ) ;
#902 = DIRECTION ( 'NONE',  ( 0.000000000000000000, 0.000000000000000000, 1.000000000000000000 ) ) ;
#903 = CIRCLE ( 'NONE', #1106, 1.600000000000001865 ) ;
#904 = CARTESIAN_POINT ( 'NONE',  ( -5.800000000000000711, 0.000000000000000000, 1.500000000000000000 ) ) ;
#905 = DIRECTION ( 'NONE',  ( 0.000000000000000000, 0.000000000000000000, -1.000000000000000000 ) ) ;
#906 = DIRECTION ( 'NONE',  ( 0.000000000000000000, 0.000000000000000000, 1.000000000000000000 ) ) ;
#907 = VERTEX_POINT ( 'NONE', #218 ) ;
#908 = DIRECTION ( 'NONE',  ( 0.000000000000000000, 0.000000000000000000, 1.000000000000000000 ) ) ;
#909 = EDGE_CURVE ( 'NONE', #785, #408, #207, .T. ) ;
#910 = VECTOR ( 'NONE', #762, 1000.000000000000000 ) ;
#911 = EDGE_CURVE ( 'NONE', #785, #675, #1122, .T. ) ;
#912 = AXIS2_PLACEMENT_3D ( 'NONE', #958, #422, #140 ) ;
#913 = DIRECTION ( 'NONE',  ( -1.000000000000000000, 0.000000000000000000, -7.228014483236695816E-17 ) ) ;
#914 = COLOUR_RGB ( '',0.7921568627450980005, 0.8196078431372548767, 0.9333333333333333481 ) ;
#915 = VECTOR ( 'NONE', #1093, 1000.000000000000000 ) ;
#916 = FACE_BOUND ( 'NONE', #1092, .T. ) ;
#917 = FACE_OUTER_BOUND ( 'NONE', #659, .T. ) ;
#918 = PLANE ( 'NONE',  #278 ) ;
#919 = UNCERTAINTY_MEASURE_WITH_UNIT (LENGTH_MEASURE( 1.000000000000000082E-05 ), #768, 'distance_accuracy_value', 'NONE');
#920 = DIRECTION ( 'NONE',  ( 1.275531967630005245E-16, -0.000000000000000000, 1.000000000000000000 ) ) ;
#921 = CARTESIAN_POINT ( 'NONE',  ( -4.000000000000000000, 12.00000000000000000, 1.499999999999999556 ) ) ;
#922 = CIRCLE ( 'NONE', #394, 1.600000000000001865 ) ;
#923 = VECTOR ( 'NONE', #234, 1000.000000000000000 ) ;
#924 = VERTEX_POINT ( 'NONE', #868 ) ;
#925 = FACE_OUTER_BOUND ( 'NONE', #850, .T. ) ;
#926 = DIRECTION ( 'NONE',  ( 0.000000000000000000, 1.000000000000000000, 0.000000000000000000 ) ) ;
#927 = DIRECTION ( 'NONE',  ( -0.000000000000000000, -1.000000000000000000, -0.000000000000000000 ) ) ;
#928 = PLANE ( 'NONE',  #1171 ) ;
#929 = EDGE_CURVE ( 'NONE', #496, #495, #376, .T. ) ;
#930 = CARTESIAN_POINT ( 'NONE',  ( -5.800000000000000711, 12.00000000000000000, 1.500000000000000000 ) ) ;
#931 = ORIENTED_EDGE ( 'NONE', *, *, #638, .F. ) ;
#932 = DIRECTION ( 'NONE',  ( 0.000000000000000000, 0.000000000000000000, -1.000000000000000000 ) ) ;
#933 = BREP_WITH_VOIDS ( 'NONE', #131, ( #449, #231 ) );
#934 = ORIENTED_EDGE ( 'NONE', *, *, #553, .F. ) ;
#935 = EDGE_CURVE ( 'NONE', #1042, #594, #289, .T. ) ;
#936 = EDGE_LOOP ( 'NONE', ( #144, #1055, #825, #689 ) ) ;
#937 = CARTESIAN_POINT ( 'NONE',  ( 5.800000000000000711, 0.000000000000000000, -1.500000000000000444 ) ) ;
#938 = VERTEX_POINT ( 'NONE', #657 ) ;
#939 = VECTOR ( 'NONE', #126, 1000.000000000000000 ) ;
#940 = CARTESIAN_POINT ( 'NONE',  ( -17.00000000000001776, 5.099999999999999645, 0.000000000000000000 ) ) ;
#941 = ORIENTED_EDGE ( 'NONE', *, *, #848, .T. ) ;
#942 = FACE_OUTER_BOUND ( 'NONE', #593, .T. ) ;
#943 = ORIENTED_EDGE ( 'NONE', *, *, #949, .F. ) ;
#944 = ORIENTED_EDGE ( 'NONE', *, *, #644, .T. ) ;
#945 = EDGE_CURVE ( 'NONE', #520, #496, #1023, .T. ) ;
#946 = SURFACE_STYLE_FILL_AREA ( #119 ) ;
#947 = VERTEX_POINT ( 'NONE', #474 ) ;
#948 = AXIS2_PLACEMENT_3D ( 'NONE', #989, #531, #147 ) ;
#949 = EDGE_CURVE ( 'NONE', #1160, #852, #839, .T. ) ;
#950 = DIRECTION ( 'NONE',  ( -0.000000000000000000, -1.000000000000000000, -0.000000000000000000 ) ) ;
#951 = VERTEX_POINT ( 'NONE', #295 ) ;
#952 = ORIENTED_EDGE ( 'NONE', *, *, #368, .T. ) ;
#953 = VECTOR ( 'NONE', #864, 1000.000000000000000 ) ;
#954 = ADVANCED_FACE ( 'NONE', ( #318, #333, #1061, #604, #775, #595, #972 ), #58, .F. ) ;
#955 = DIRECTION ( 'NONE',  ( -1.000000000000000000, 0.000000000000000000, -7.228014483236695816E-17 ) ) ;
#956 = ORIENTED_EDGE ( 'NONE', *, *, #185, .T. ) ;
#957 = AXIS2_PLACEMENT_3D ( 'NONE', #148, #598, #965 ) ;
#958 = CARTESIAN_POINT ( 'NONE',  ( 16.99999999999998224, 0.5999999999999999778, 0.000000000000000000 ) ) ;
#959 = ORIENTED_EDGE ( 'NONE', *, *, #103, .T. ) ;
#960 = VERTEX_POINT ( 'NONE', #700 ) ;
#961 = VECTOR ( 'NONE', #722, 1000.000000000000000 ) ;
#962 = AXIS2_PLACEMENT_3D ( 'NONE', #561, #366, #564 ) ;
#963 = DIRECTION ( 'NONE',  ( 1.445602896647339163E-16, -0.000000000000000000, 1.000000000000000000 ) ) ;
#964 = LINE ( 'NONE', #74, #82 ) ;
#965 = DIRECTION ( 'NONE',  ( 0.000000000000000000, 0.000000000000000000, -1.000000000000000000 ) ) ;
#966 = LINE ( 'NONE', #600, #761 ) ;
#967 = VERTEX_POINT ( 'NONE', #513 ) ;
#968 = ORIENTED_EDGE ( 'NONE', *, *, #797, .T. ) ;
#969 = ADVANCED_FACE ( 'NONE', ( #418 ), #52, .F. ) ;
#970 = ADVANCED_FACE ( 'NONE', ( #979 ), #241, .T. ) ;
#971 = EDGE_CURVE ( 'NONE', #675, #487, #64, .T. ) ;
#972 = FACE_BOUND ( 'NONE', #767, .T. ) ;
#973 = PLANE ( 'NONE',  #948 ) ;
#974 = LINE ( 'NONE', #790, #230 ) ;
#975 = DIRECTION ( 'NONE',  ( 0.000000000000000000, 0.000000000000000000, 1.000000000000000000 ) ) ;
#976 = DIRECTION ( 'NONE',  ( 0.000000000000000000, 0.000000000000000000, -1.000000000000000000 ) ) ;
#977 = ORIENTED_EDGE ( 'NONE', *, *, #438, .F. ) ;
#978 = ORIENTED_EDGE ( 'NONE', *, *, #663, .T. ) ;
#979 = FACE_OUTER_BOUND ( 'NONE', #472, .T. ) ;
#980 = DIRECTION ( 'NONE',  ( 1.000000000000000000, 0.000000000000000000, 2.168404344971010594E-16 ) ) ;
#981 = LINE ( 'NONE', #164, #814 ) ;
#982 = DIRECTION ( 'NONE',  ( 0.000000000000000000, 0.000000000000000000, -1.000000000000000000 ) ) ;
#983 = AXIS2_PLACEMENT_3D ( 'NONE', #694, #892, #1070 ) ;
#984 = LINE ( 'NONE', #167, #356 ) ;
#985 = DIRECTION ( 'NONE',  ( 2.891205793294678819E-16, -0.000000000000000000, 1.000000000000000000 ) ) ;
#986 = ORIENTED_EDGE ( 'NONE', *, *, #205, .T. ) ;
#987 = ORIENTED_EDGE ( 'NONE', *, *, #1057, .F. ) ;
#988 = CARTESIAN_POINT ( 'NONE',  ( 2.168404344971007389E-16, 12.00000000000000000, 1.499999999999999112 ) ) ;
#989 = CARTESIAN_POINT ( 'NONE',  ( 16.99999999999998224, 0.5999999999999999778, 0.000000000000000000 ) ) ;
#990 = CARTESIAN_POINT ( 'NONE',  ( -17.00000000000001066, 12.00000000000000000, 3.500000000000004441 ) ) ;
#991 = CARTESIAN_POINT ( 'NONE',  ( 4.000000000000000000, 12.00000000000000000, -1.500000000000000444 ) ) ;
#992 = VERTEX_POINT ( 'NONE', #73 ) ;
#993 = LINE ( 'NONE', #821, #961 ) ;
#994 = EDGE_CURVE ( 'NONE', #852, #889, #611, .T. ) ;
#995 = CARTESIAN_POINT ( 'NONE',  ( -10.80000000000000071, 12.00000000000000000, 1.499999999999999112 ) ) ;
#996 = EDGE_CURVE ( 'NONE', #221, #405, #404, .T. ) ;
#997 = CARTESIAN_POINT ( 'NONE',  ( 16.99999999999998224, 5.099999999999999645, 0.000000000000000000 ) ) ;
#998 = EDGE_LOOP ( 'NONE', ( #707, #581, #1008, #511 ) ) ;
#999 = PLANE ( 'NONE',  #693 ) ;
#1000 = VECTOR ( 'NONE', #154, 1000.000000000000000 ) ;
#1001 = PLANE ( 'NONE',  #646 ) ;
#1002 = CARTESIAN_POINT ( 'NONE',  ( -17.00000000000001776, 5.099999999999999645, -1.600000000000001865 ) ) ;
#1003 = VECTOR ( 'NONE', #349, 1000.000000000000000 ) ;
#1004 = DIRECTION ( 'NONE',  ( 2.168404344971010594E-16, -0.000000000000000000, 1.000000000000000000 ) ) ;
#1005 = PRESENTATION_LAYER_ASSIGNMENT (  '', '', ( #186 ) ) ;
#1006 = VECTOR ( 'NONE', #1088, 1000.000000000000000 ) ;
#1007 = DIRECTION ( 'NONE',  ( -0.000000000000000000, -1.000000000000000000, -0.000000000000000000 ) ) ;
#1008 = ORIENTED_EDGE ( 'NONE', *, *, #165, .T. ) ;
#1009 = EDGE_CURVE ( 'NONE', #521, #714, #287, .T. ) ;
#1010 = EDGE_CURVE ( 'NONE', #3, #365, #1145, .T. ) ;
#1011 = CARTESIAN_POINT ( 'NONE',  ( -1.084202172485504927E-16, 12.00000000000000000, -1.500000000000000666 ) ) ;
#1012 = DIRECTION ( 'NONE',  ( 2.891205793294678819E-16, 0.000000000000000000, -1.000000000000000000 ) ) ;
#1013 = DIRECTION ( 'NONE',  ( -5.782411586589356653E-16, 0.000000000000000000, 1.000000000000000000 ) ) ;
#1014 = CARTESIAN_POINT ( 'NONE',  ( 1.084202172485503941E-16, 12.00000000000000000, 1.499999999999999334 ) ) ;
#1015 = VECTOR ( 'NONE', #856, 1000.000000000000000 ) ;
#1016 = AXIS2_PLACEMENT_3D ( 'NONE', #506, #1154, #880 ) ;
#1017 = VECTOR ( 'NONE', #1089, 1000.000000000000000 ) ;
#1018 = ADVANCED_FACE ( 'NONE', ( #890 ), #259, .T. ) ;
#1019 = PLANE ( 'NONE',  #1022 ) ;
#1020 = DIRECTION ( 'NONE',  ( -1.000000000000000000, 0.000000000000000000, 5.782411586589356653E-16 ) ) ;
#1021 = VECTOR ( 'NONE', #61, 1000.000000000000000 ) ;
#1022 = AXIS2_PLACEMENT_3D ( 'NONE', #190, #920, #832 ) ;
#1023 = LINE ( 'NONE', #1043, #1051 ) ;
#1024 = ORIENTED_EDGE ( 'NONE', *, *, #163, .F. ) ;
#1025 = CARTESIAN_POINT ( 'NONE',  ( -17.00000000000001776, 5.099999999999999645, 0.000000000000000000 ) ) ;
#1026 = EDGE_CURVE ( 'NONE', #386, #960, #798, .T. ) ;
#1027 = EDGE_LOOP ( 'NONE', ( #1085, #853, #931, #757 ) ) ;
#1028 = CARTESIAN_POINT ( 'NONE',  ( 13.79999999999999893, 0.000000000000000000, -1.500000000000000222 ) ) ;
#1029 = ORIENTED_EDGE ( 'NONE', *, *, #206, .F. ) ;
#1030 = DIRECTION ( 'NONE',  ( 1.445602896647339163E-16, 0.000000000000000000, -1.000000000000000000 ) ) ;
#1031 = ORIENTED_EDGE ( 'NONE', *, *, #862, .T. ) ;
#1032 = CARTESIAN_POINT ( 'NONE',  ( -1.084202172485503941E-16, 12.00000000000000000, 1.499999999999999334 ) ) ;
#1033 = ORIENTED_EDGE ( 'NONE', *, *, #1140, .F. ) ;
#1034 = FACE_OUTER_BOUND ( 'NONE', #319, .T. ) ;
#1035 = ADVANCED_FACE ( 'NONE', ( #1049 ), #232, .F. ) ;
#1036 = ORIENTED_EDGE ( 'NONE', *, *, #203, .T. ) ;
#1037 = ORIENTED_EDGE ( 'NONE', *, *, #558, .T. ) ;
#1038 = PLANE ( 'NONE',  #72 ) ;
#1039 = ORIENTED_EDGE ( 'NONE', *, *, #1026, .F. ) ;
#1040 = DIRECTION ( 'NONE',  ( 0.000000000000000000, 1.000000000000000000, 0.000000000000000000 ) ) ;
#1041 = ORIENTED_EDGE ( 'NONE', *, *, #753, .T. ) ;
#1042 = VERTEX_POINT ( 'NONE', #325 ) ;
#1043 = CARTESIAN_POINT ( 'NONE',  ( 4.000000000000000000, 0.000000000000000000, 0.000000000000000000 ) ) ;
#1044 = CARTESIAN_POINT ( 'NONE',  ( 16.99999999999998224, 0.5999999999999999778, 0.000000000000000000 ) ) ;
#1045 = VECTOR ( 'NONE', #272, 1000.000000000000000 ) ;
#1046 = CARTESIAN_POINT ( 'NONE',  ( 16.99999999999998224, 12.00000000000000000, 0.000000000000000000 ) ) ;
#1047 = ORIENTED_EDGE ( 'NONE', *, *, #192, .F. ) ;
#1048 = VERTEX_POINT ( 'NONE', #613 ) ;
#1049 = FACE_OUTER_BOUND ( 'NONE', #208, .T. ) ;
#1050 = CARTESIAN_POINT ( 'NONE',  ( -1.000000000000000000, 0.000000000000000000, -1.500000000000000666 ) ) ;
#1051 = VECTOR ( 'NONE', #200, 1000.000000000000000 ) ;
#1052 = CARTESIAN_POINT ( 'NONE',  ( 2.168404344971007389E-16, 0.000000000000000000, 1.499999999999999112 ) ) ;
#1053 = LINE ( 'NONE', #156, #953 ) ;
#1054 = ADVANCED_FACE ( 'NONE', ( #685 ), #60, .T. ) ;
#1055 = ORIENTED_EDGE ( 'NONE', *, *, #884, .T. ) ;
#1056 = ORIENTED_EDGE ( 'NONE', *, *, #93, .T. ) ;
#1057 = EDGE_CURVE ( 'NONE', #992, #365, #1063, .T. ) ;
#1058 = VECTOR ( 'NONE', #266, 1000.000000000000000 ) ;
#1059 = VECTOR ( 'NONE', #86, 1000.000000000000000 ) ;
#1060 = AXIS2_PLACEMENT_3D ( 'NONE', #547, #6, #97 ) ;
#1061 = FACE_BOUND ( 'NONE', #776, .T. ) ;
#1062 = DIRECTION ( 'NONE',  ( -1.000000000000000000, 0.000000000000000000, -7.228014483236695816E-17 ) ) ;
#1063 = LINE ( 'NONE', #155, #1110 ) ;
#1064 = DIRECTION ( 'NONE',  ( 0.000000000000000000, 0.000000000000000000, -1.000000000000000000 ) ) ;
#1065 = EDGE_CURVE ( 'NONE', #714, #216, #413, .T. ) ;
#1066 = VERTEX_POINT ( 'NONE', #515 ) ;
#1067 = VERTEX_POINT ( 'NONE', #782 ) ;
#1068 = CARTESIAN_POINT ( 'NONE',  ( 16.99999999999998224, 0.000000000000000000, 0.000000000000000000 ) ) ;
#1069 = CARTESIAN_POINT ( 'NONE',  ( -1.084202172485503941E-16, 0.000000000000000000, 1.499999999999999334 ) ) ;
#1070 = DIRECTION ( 'NONE',  ( 1.000000000000000000, 0.000000000000000000, -2.891205793294678326E-16 ) ) ;
#1071 = DIRECTION ( 'NONE',  ( 1.000000000000000000, 0.000000000000000000, 2.168404344971010594E-16 ) ) ;
#1072 = CARTESIAN_POINT ( 'NONE',  ( -4.336808689942031048E-16, 0.000000000000000000, -1.500000000000004219 ) ) ;
#1073 = CARTESIAN_POINT ( 'NONE',  ( -17.00000000000001776, 5.099999999999999645, 0.000000000000000000 ) ) ;
#1074 = ORIENTED_EDGE ( 'NONE', *, *, #438, .T. ) ;
#1075 = ORIENTED_EDGE ( 'NONE', *, *, #644, .F. ) ;
#1076 = CARTESIAN_POINT ( 'NONE',  ( -5.800000000000000711, 0.000000000000000000, -0.000000000000000000 ) ) ;
#1077 = LINE ( 'NONE', #419, #436 ) ;
#1078 = AXIS2_PLACEMENT_3D ( 'NONE', #1120, #1020, #202 ) ;
#1079 = FACE_OUTER_BOUND ( 'NONE', #49, .T. ) ;
#1080 = DIRECTION ( 'NONE',  ( 0.000000000000000000, 1.000000000000000000, 0.000000000000000000 ) ) ;
#1081 = APPLICATION_PROTOCOL_DEFINITION ( 'draft international standard', 'automotive_design', 1998, #672 ) ;
#1082 = EDGE_CURVE ( 'NONE', #408, #992, #1156, .T. ) ;
#1083 = ORIENTED_EDGE ( 'NONE', *, *, #751, .F. ) ;
#1084 = DIRECTION ( 'NONE',  ( -1.000000000000000000, 0.000000000000000000, 2.891205793294679312E-16 ) ) ;
#1085 = ORIENTED_EDGE ( 'NONE', *, *, #1009, .T. ) ;
#1086 = EDGE_CURVE ( 'NONE', #521, #907, #974, .T. ) ;
#1087 = CARTESIAN_POINT ( 'NONE',  ( 16.99999999999998934, 12.00000000000000000, -3.500000000000000000 ) ) ;
#1088 = DIRECTION ( 'NONE',  ( 0.000000000000000000, 0.000000000000000000, -1.000000000000000000 ) ) ;
#1089 = DIRECTION ( 'NONE',  ( 0.000000000000000000, 0.000000000000000000, -1.000000000000000000 ) ) ;
#1090 = ORIENTED_EDGE ( 'NONE', *, *, #357, .F. ) ;
#1091 = FACE_OUTER_BOUND ( 'NONE', #41, .T. ) ;
#1092 = EDGE_LOOP ( 'NONE', ( #897, #503, #116, #275 ) ) ;
#1093 = DIRECTION ( 'NONE',  ( -0.000000000000000000, -1.000000000000000000, -0.000000000000000000 ) ) ;
#1094 = CARTESIAN_POINT ( 'NONE',  ( 10.80000000000000071, 12.00000000000000000, -1.500000000000001110 ) ) ;
#1095 = EDGE_LOOP ( 'NONE', ( #78, #360, #778, #201 ) ) ;
#1096 = CARTESIAN_POINT ( 'NONE',  ( 8.800000000000000711, 12.00000000000000000, 1.500000000000000444 ) ) ;
#1097 = CARTESIAN_POINT ( 'NONE',  ( 8.800000000000000711, 0.000000000000000000, 0.000000000000000000 ) ) ;
#1098 = LINE ( 'NONE', #274, #816 ) ;
#1099 = ADVANCED_FACE ( 'NONE', ( #1148 ), #606, .T. ) ;
#1100 = EDGE_CURVE ( 'NONE', #675, #992, #252, .T. ) ;
#1101 = LINE ( 'NONE', #188, #599 ) ;
#1102 = VECTOR ( 'NONE', #354, 1000.000000000000000 ) ;
#1103 = LINE ( 'NONE', #1096, #1102 ) ;
#1104 = CARTESIAN_POINT ( 'NONE',  ( 1.084202172485503941E-16, 12.00000000000000000, 1.499999999999999334 ) ) ;
#1105 = FACE_OUTER_BOUND ( 'NONE', #831, .T. ) ;
#1106 = AXIS2_PLACEMENT_3D ( 'NONE', #1044, #296, #53 ) ;
#1107 = DIRECTION ( 'NONE',  ( -1.000000000000000000, 0.000000000000000000, 7.228014483236695816E-17 ) ) ;
#1108 = CARTESIAN_POINT ( 'NONE',  ( 4.000000000000000000, 12.00000000000000000, -1.500000000000000444 ) ) ;
#1109 = VECTOR ( 'NONE', #385, 1000.000000000000000 ) ;
#1110 = VECTOR ( 'NONE', #876, 1000.000000000000000 ) ;
#1111 = EDGE_CURVE ( 'NONE', #967, #521, #981, .T. ) ;
#1112 = ADVANCED_FACE ( 'NONE', ( #810 ), #273, .T. ) ;
#1113 = SURFACE_SIDE_STYLE ('',( #946 ) ) ;
#1114 = FACE_OUTER_BOUND ( 'NONE', #1, .T. ) ;
#1115 = VECTOR ( 'NONE', #877, 1000.000000000000000 ) ;
#1116 = VECTOR ( 'NONE', #281, 1000.000000000000000 ) ;
#1117 = ORIENTED_EDGE ( 'NONE', *, *, #533, .T. ) ;
#1118 = DIRECTION ( 'NONE',  ( -0.000000000000000000, -1.000000000000000000, -0.000000000000000000 ) ) ;
#1119 = ORIENTED_EDGE ( 'NONE', *, *, #223, .F. ) ;
#1120 = CARTESIAN_POINT ( 'NONE',  ( -13.79999999999999716, 12.00000000000000000, 7.979727989493311057E-15 ) ) ;
#1121 = ORIENTED_EDGE ( 'NONE', *, *, #412, .F. ) ;
#1122 = LINE ( 'NONE', #930, #747 ) ;
#1123 = ORIENTED_EDGE ( 'NONE', *, *, #51, .F. ) ;
#1124 = CARTESIAN_POINT ( 'NONE',  ( 4.000000000000000000, 0.000000000000000000, -1.500000000000000444 ) ) ;
#1125 = AXIS2_PLACEMENT_3D ( 'NONE', #830, #770, #320 ) ;
#1126 = ORIENTED_EDGE ( 'NONE', *, *, #1111, .F. ) ;
#1127 = ORIENTED_EDGE ( 'NONE', *, *, #34, .F. ) ;
#1128 = ADVANCED_FACE ( 'NONE', ( #625 ), #527, .F. ) ;
#1129 = LINE ( 'NONE', #670, #1153 ) ;
#1130 = EDGE_LOOP ( 'NONE', ( #978, #811, #1024, #125 ) ) ;
#1131 = LINE ( 'NONE', #502, #615 ) ;
#1132 = ORIENTED_EDGE ( 'NONE', *, *, #71, .T. ) ;
#1133 = ORIENTED_EDGE ( 'NONE', *, *, #51, .T. ) ;
#1134 = ORIENTED_EDGE ( 'NONE', *, *, #110, .F. ) ;
#1135 = DIRECTION ( 'NONE',  ( -1.000000000000000000, 0.000000000000000000, 0.000000000000000000 ) ) ;
#1136 = ORIENTED_EDGE ( 'NONE', *, *, #1065, .F. ) ;
#1137 = EDGE_LOOP ( 'NONE', ( #866, #510, #107, #159 ) ) ;
#1138 = DIRECTION ( 'NONE',  ( -0.000000000000000000, -1.000000000000000000, -0.000000000000000000 ) ) ;
#1139 = ORIENTED_EDGE ( 'NONE', *, *, #945, .T. ) ;
#1140 = EDGE_CURVE ( 'NONE', #760, #485, #793, .T. ) ;
#1141 = VECTOR ( 'NONE', #1166, 1000.000000000000000 ) ;
#1142 = CARTESIAN_POINT ( 'NONE',  ( 13.79999999999999893, 12.00000000000000000, -1.500000000000000222 ) ) ;
#1143 = ORIENTED_EDGE ( 'NONE', *, *, #683, .F. ) ;
#1144 = ORIENTED_EDGE ( 'NONE', *, *, #505, .F. ) ;
#1145 = LINE ( 'NONE', #250, #1173 ) ;
#1146 = CARTESIAN_POINT ( 'NONE',  ( 8.800000000000000711, 12.00000000000000000, 0.000000000000000000 ) ) ;
#1147 = ADVANCED_FACE ( 'NONE', ( #720 ), #608, .T. ) ;
#1148 = FACE_OUTER_BOUND ( 'NONE', #727, .T. ) ;
#1149 = PLANE ( 'NONE',  #104 ) ;
#1150 = PRODUCT_CONTEXT ( 'NONE', #672, 'mechanical' ) ;
#1151 = ORIENTED_EDGE ( 'NONE', *, *, #909, .T. ) ;
#1152 = ORIENTED_EDGE ( 'NONE', *, *, #108, .T. ) ;
#1153 = VECTOR ( 'NONE', #756, 1000.000000000000000 ) ;
#1154 = DIRECTION ( 'NONE',  ( -1.000000000000000000, 0.000000000000000000, 0.000000000000000000 ) ) ;
#1155 = FACE_OUTER_BOUND ( 'NONE', #339, .T. ) ;
#1156 = LINE ( 'NONE', #421, #742 ) ;
#1157 = CARTESIAN_POINT ( 'NONE',  ( -17.00000000000001776, 0.5999999999999999778, 0.000000000000000000 ) ) ;
#1158 = LINE ( 'NONE', #991, #224 ) ;
#1159 =( LENGTH_UNIT ( ) NAMED_UNIT ( * ) SI_UNIT ( .MILLI., .METRE. ) );
#1160 = VERTEX_POINT ( 'NONE', #1094 ) ;
#1161 = VERTEX_POINT ( 'NONE', #174 ) ;
#1162 = CARTESIAN_POINT ( 'NONE',  ( 8.800000000000000711, 12.00000000000000000, -1.499999999999999556 ) ) ;
#1163 = CARTESIAN_POINT ( 'NONE',  ( 5.800000000000000711, 12.00000000000000000, 1.500000000000000000 ) ) ;
#1164 = ADVANCED_FACE ( 'NONE', ( #344 ), #705, .T. ) ;
#1165 = DIRECTION ( 'NONE',  ( -1.000000000000000000, 0.000000000000000000, 0.000000000000000000 ) ) ;
#1166 = DIRECTION ( 'NONE',  ( 0.000000000000000000, 0.000000000000000000, -1.000000000000000000 ) ) ;
#1167 = ORIENTED_EDGE ( 'NONE', *, *, #911, .F. ) ;
#1168 = CARTESIAN_POINT ( 'NONE',  ( 0.000000000000000000, 12.00000000000000000, 0.000000000000000000 ) ) ;
#1169 = ORIENTED_EDGE ( 'NONE', *, *, #265, .T. ) ;
#1170 = EDGE_CURVE ( 'NONE', #785, #137, #818, .T. ) ;
#1171 = AXIS2_PLACEMENT_3D ( 'NONE', #744, #661, #737 ) ;
#1172 = DIRECTION ( 'NONE',  ( -1.000000000000000000, 0.000000000000000000, 2.168404344971010594E-16 ) ) ;
#1173 = VECTOR ( 'NONE', #681, 1000.000000000000000 ) ;
#1174 = AXIS2_PLACEMENT_3D ( 'NONE', #542, #450, #906 ) ;
#1175 = CARTESIAN_POINT ( 'NONE',  ( 10.80000000000000071, 12.00000000000000000, 1.499999999999999112 ) ) ;
#1176 = EDGE_CURVE ( 'NONE', #603, #216, #895, .T. ) ;
#1177 = CARTESIAN_POINT ( 'NONE',  ( 1.084202172485504927E-16, 12.00000000000000000, -1.500000000000000666 ) ) ;
#1178 = ORIENTED_EDGE ( 'NONE', *, *, #411, .T. ) ;
#1179 = DIRECTION ( 'NONE',  ( -1.000000000000000000, 0.000000000000000000, -7.228014483236695816E-17 ) ) ;
#1180 = VECTOR ( 'NONE', #1064, 1000.000000000000000 ) ;
#1181 = AXIS2_PLACEMENT_3D ( 'NONE', #1104, #835, #463 ) ;
#1182 = CARTESIAN_POINT ( 'NONE',  ( -13.79999999999999716, 12.00000000000000000, 7.979727989493311057E-15 ) ) ;
#1183 = CARTESIAN_POINT ( 'NONE',  ( -17.00000000000001066, 12.00000000000000000, -3.500000000000004441 ) ) ;
ENDSEC;
END-ISO-10303-21;
